<?xml version="1.0" encoding="utf-8"?>
<!-- Generator: Adobe Illustrator 16.0.0, SVG Export Plug-In . SVG Version: 6.00 Build 0)  -->
<!DOCTYPE svg PUBLIC "-//W3C//DTD SVG 1.1//EN" "http://www.w3.org/Graphics/SVG/1.1/DTD/svg11.dtd">
<svg version="1.1" id="Layer_1" xmlns="http://www.w3.org/2000/svg" xmlns:xlink="http://www.w3.org/1999/xlink" x="0px" y="0px"
	 width="2000px" height="401.875px" viewBox="0 0 2000 401.875" enable-background="new 0 0 2000 401.875" xml:space="preserve">
<rect fill="#FFFFFF" width="2000" height="403.375"/>
<g opacity="0.2">
	<defs>
		<rect id="SVGID_1_" opacity="0.2" width="800.75" height="400.375"/>
	</defs>
	<clipPath id="SVGID_2_">
		<use xlink:href="#SVGID_1_"  overflow="visible"/>
	</clipPath>
	<g clip-path="url(#SVGID_2_)">
		<g>
			<g id="triangle36_1455_">
				<path fill="#C4C4C4" d="M-35.692-68.795l77.911-43.059l-21.01-18.809l-57.004,41.907l-0.006-0.807l56.836-41.783
					c0.125-0.092,0.296-0.083,0.411,0.02l21.55,19.292c0.078,0.071,0.117,0.175,0.105,0.279c-0.011,0.106-0.073,0.198-0.165,0.25
					l-78.625,43.454L-35.692-68.795z"/>
			</g>
			<g id="triangle36_1454_">
				<path fill="#C4C4C4" d="M-35.393-9.878l76.97-100.875l-77.266,42.702l-0.004-0.744l78.313-43.281
					c0.135-0.076,0.305-0.045,0.402,0.072c0.103,0.117,0.108,0.289,0.014,0.411L-35.388-8.81L-35.393-9.878z"/>
			</g>
			<g id="triangle36_1451_">
				<path fill="#C4C4C4" d="M282.266,471.702l-104.808-47.258l-10.273,47.844l-0.669,0.004l10.389-48.379
					c0.02-0.097,0.084-0.178,0.172-0.223s0.192-0.048,0.281-0.007l106.479,48.011L282.266,471.702z"/>
			</g>
			<g id="triangle36_1439_">
				<polygon fill="#C4C4C4" points="-33.041,450.997 35.717,472.96 33.606,472.969 -33.036,451.682 				"/>
			</g>
			<g id="triangle36_1423_">
				<path fill="#C4C4C4" d="M-35.801-89.563l56.078-41.226l-56.296-1.868l-0.005-0.653l57.264,1.9
					c0.139,0.005,0.26,0.097,0.299,0.23c0.041,0.133-0.006,0.277-0.117,0.359l-57.217,42.064L-35.801-89.563z"/>
			</g>
			<g id="triangle36_1422_">
				<path fill="#C4C4C4" d="M-34.6,145.291l75.887-4.474l-61.313-37.179l-14.729,11.468l-0.004-0.823l14.509-11.298
					c0.106-0.082,0.253-0.091,0.369-0.021l62.402,37.838c0.123,0.075,0.181,0.22,0.147,0.358c-0.034,0.139-0.155,0.238-0.297,0.247
					l-76.969,4.539L-34.6,145.291z"/>
			</g>
			<g id="triangle36_1420_">
				<path fill="#C4C4C4" d="M528.557,470.445l-12.5-21.32l-2.521,21.396l-0.657,0.005l2.644-22.441
					c0.017-0.14,0.12-0.253,0.257-0.28c0.136-0.031,0.277,0.031,0.349,0.154l13.183,22.482L528.557,470.445z"/>
			</g>
			<g id="triangle36_1419_">
				<polygon fill="#C4C4C4" points="-33.041,450.997 35.717,472.96 33.606,472.969 -33.036,451.682 				"/>
				<path fill="#C4C4C4" d="M-33.059,447.45l72.087-17.907c0.175-0.038,0.351,0.063,0.394,0.237l10.91,43.105l-0.672,0.003
					l-10.789-42.633l-71.926,17.866L-33.059,447.45z"/>
			</g>
			<g id="triangle36_1418_">
				<path fill="#C4C4C4" d="M-33.82,298.104l39.385,22.604l29.743-7.947l-69.188-26.493l-0.005-0.7l70.367,26.945
					c0.13,0.051,0.215,0.181,0.207,0.32c-0.007,0.143-0.104,0.262-0.24,0.299l-30.848,8.242c-0.027,0.007-0.056,0.011-0.083,0.011
					c-0.057,0-0.112-0.014-0.164-0.043l-39.171-22.482L-33.82,298.104z"/>
			</g>
			<g id="triangle36_1417_">
				<path fill="#C4C4C4" d="M166.516,472.292l10.266-47.807L136.998,438.6l17.185,33.755l-0.729,0.004l-17.205-33.794
					c-0.044-0.084-0.048-0.182-0.013-0.269c0.035-0.089,0.105-0.157,0.192-0.188l40.686-14.436c0.108-0.041,0.234-0.015,0.323,0.063
					c0.089,0.076,0.13,0.197,0.104,0.313l-10.356,48.238L166.516,472.292z"/>
			</g>
			<g id="triangle36_1416_">
				<path fill="#C4C4C4" d="M153.454,472.359l-16.945-33.282l-21.079,33.477l-0.773,0.004l21.607-34.315
					c0.062-0.099,0.174-0.168,0.29-0.152c0.117,0.007,0.223,0.073,0.275,0.18l17.354,34.086L153.454,472.359z"/>
			</g>
			<g id="triangle36_1415_">
				<path fill="#C4C4C4" d="M115.43,472.553l-0.773,0.004l21.016-33.373l-71.824,33.632l-1.555,0.009l74.107-34.704
					c0.133-0.062,0.287-0.029,0.383,0.08c0.097,0.109,0.108,0.267,0.031,0.39L115.43,472.553z"/>
			</g>
			<g id="triangle36_1414_">
				<path fill="#C4C4C4" d="M136.678,438.711L63.85,472.816l-1.556,0.009l73.008-34.189l-95.765-8.41l10.795,42.66l-0.672,0.003
					l-10.869-42.949c-0.025-0.103-0.001-0.21,0.068-0.29c0.067-0.082,0.175-0.119,0.275-0.115l97.433,8.558
					c0.147,0.014,0.267,0.124,0.293,0.267C136.886,438.505,136.811,438.649,136.678,438.711z"/>
			</g>
			<g id="triangle36_1412_">
				<path fill="#C4C4C4" d="M512.879,470.525l2.563-21.753l-33.882,21.913l-1.211,0.005l35.32-22.842
					c0.106-0.068,0.241-0.07,0.35-0.004c0.107,0.066,0.167,0.19,0.151,0.315l-2.634,22.36L512.879,470.525z"/>
			</g>
			<g id="triangle36_1411_">
				<path fill="#C4C4C4" d="M296.363,250.684l-79.501-25.787c-0.159-0.051-0.254-0.215-0.22-0.379
					c0.037-0.163,0.181-0.28,0.358-0.254l82.851,9.601c0.092,0.01,0.172,0.058,0.227,0.133c0.053,0.073,0.073,0.167,0.055,0.257
					l-3.349,16.186c-0.019,0.092-0.076,0.17-0.156,0.216c-0.05,0.03-0.105,0.044-0.163,0.045
					C296.432,250.701,296.396,250.695,296.363,250.684z M220.183,225.29l76.036,24.661l3.202-15.479L220.183,225.29z"/>
			</g>
			<g id="triangle36_1409_">
				<path fill="#C4C4C4" d="M559.186,470.288l-4.273-46.702l-38.626,24.642l13.024,22.213l-0.754,0.005l-12.992-22.158
					c-0.088-0.15-0.042-0.346,0.105-0.44l39.343-25.1c0.097-0.06,0.218-0.066,0.32-0.018c0.101,0.051,0.17,0.15,0.181,0.263
					l4.326,47.292L559.186,470.288z"/>
			</g>
			<g id="triangle36_1408_">
				<path fill="#C4C4C4" d="M515.744,448.432c-0.092-0.031-0.168-0.102-0.202-0.194l-27.827-72.291
					c-0.051-0.134-0.009-0.285,0.104-0.374c0.112-0.088,0.271-0.092,0.39-0.009l67.168,47.192c0.089,0.061,0.141,0.164,0.139,0.272
					c-0.002,0.109-0.059,0.208-0.151,0.269l-39.342,25.1c-0.053,0.032-0.111,0.051-0.174,0.051
					C515.813,448.448,515.779,448.443,515.744,448.432z M488.709,376.713l27.298,70.918l38.596-24.621L488.709,376.713z"/>
			</g>
			<g id="triangle36_1407_">
				<path fill="#C4C4C4" d="M396.281,450.134c-0.049-0.13-0.009-0.276,0.101-0.364l91.433-74.192c0.081-0.067,0.188-0.09,0.29-0.063
					c0.101,0.026,0.183,0.101,0.22,0.198l27.827,72.291c0.038,0.1,0.024,0.211-0.034,0.301c-0.061,0.088-0.158,0.141-0.266,0.143
					l-119.26,1.9c-0.002,0-0.002,0-0.002,0C396.451,450.35,396.326,450.264,396.281,450.134z M487.877,376.366l-90.353,73.316
					l117.849-1.879L487.877,376.366z"/>
			</g>
			<g id="triangle36_1406_">
				<path fill="#C4C4C4" d="M481.56,470.685l-1.211,0.005l34.364-22.224l-116.894,1.863l37.379,20.591l-1.341,0.008l-37.428-20.619
					c-0.13-0.071-0.195-0.221-0.159-0.364c0.035-0.145,0.163-0.245,0.312-0.247l119.259-1.902h0.004
					c0.144-0.002,0.272,0.094,0.313,0.232c0.043,0.139-0.012,0.288-0.135,0.367L481.56,470.685z"/>
			</g>
			<g id="triangle36_1405_">
				<path fill="#C4C4C4" d="M433.857,470.928l-36.346-20.022l12.375,20.145l-0.763,0.003l-12.816-20.859
					c-0.075-0.126-0.06-0.289,0.044-0.396c0.101-0.107,0.264-0.134,0.393-0.06l38.453,21.182L433.857,470.928z"/>
			</g>
			<g id="triangle36_1404_">
				<path fill="#C4C4C4" d="M409.124,471.053l-12.685-20.647l-72.227,21.081l-2.367,0.012l74.649-21.787
					c0.145-0.047,0.294,0.016,0.37,0.141l13.022,21.198L409.124,471.053z"/>
			</g>
			<g id="triangle36_1382_">
				<path fill="#C4C4C4" d="M78.85,280.151c-0.089-0.108-0.103-0.26-0.029-0.38l68.068-112.878c0.048-0.082,0.13-0.138,0.223-0.153
					c0.095-0.019,0.189,0.009,0.263,0.069l69.796,57.527c0.09,0.072,0.132,0.188,0.115,0.301c-0.019,0.113-0.095,0.21-0.2,0.252
					L79.221,280.242c-0.039,0.015-0.08,0.023-0.119,0.023C79.006,280.265,78.915,280.226,78.85,280.151z M147.252,167.553
					l-67.37,111.721l136.449-54.785L147.252,167.553z"/>
			</g>
			<g id="triangle36_1381_">
				<path fill="#C4C4C4" d="M78.999,280.25c-0.144-0.047-0.237-0.185-0.225-0.337l10.877-138.454c0.008-0.106,0.067-0.2,0.158-0.255
					c0.091-0.054,0.204-0.061,0.299-0.016l57.192,25.576c0.084,0.038,0.149,0.11,0.177,0.2c0.028,0.09,0.017,0.187-0.032,0.267
					L79.378,280.108c-0.06,0.099-0.165,0.157-0.276,0.157C79.067,280.265,79.032,280.26,78.999,280.25z M90.265,141.971
					L79.533,278.588l67.164-111.381L90.265,141.971z"/>
			</g>
			<g id="triangle36_1380_">
				<path fill="#C4C4C4" d="M78.783,280.022L42.037,141.164c-0.025-0.098-0.004-0.203,0.057-0.284
					c0.063-0.08,0.193-0.111,0.262-0.126l47.623,0.404c0.091,0.001,0.178,0.04,0.237,0.106c0.063,0.066,0.093,0.156,0.086,0.247
					L79.424,279.965c-0.012,0.157-0.137,0.284-0.295,0.299c-0.01,0.001-0.02,0.001-0.027,0.001
					C78.953,280.266,78.821,280.167,78.783,280.022z M42.777,141.411l36.147,136.592l10.7-136.194L42.777,141.411z"/>
			</g>
			<g id="triangle36_1379_">
				<path fill="#C4C4C4" d="M-33.885,285.567l70.195,26.879l41.945-32.27l-112.23-12.026l-0.002-0.657l113.11,12.121
					c0.133,0.016,0.243,0.107,0.279,0.237c0.036,0.127-0.009,0.265-0.115,0.347l-42.734,32.877
					c-0.058,0.045-0.128,0.067-0.196,0.067c-0.041,0-0.08-0.007-0.12-0.021l-70.127-26.854L-33.885,285.567z"/>
			</g>
			<g id="triangle36_1378_">
				<path fill="#C4C4C4" d="M89.973,141.811l-47.623-0.403c-0.179-0.001-0.324-0.148-0.323-0.328l0.199-44.948
					c0.001-0.13,0.079-0.248,0.198-0.299c0.12-0.052,0.258-0.026,0.354,0.064l47.425,45.353c0.096,0.092,0.126,0.234,0.076,0.357
					c-0.051,0.123-0.169,0.203-0.302,0.204C89.978,141.811,89.975,141.811,89.973,141.811z M42.681,140.757l46.475,0.395
					l-46.28-44.26L42.681,140.757z"/>
			</g>
			<g id="triangle36_1377_">
				<path fill="#C4C4C4" d="M-35.046,58.212l77.272,37.4l0.225-206.436L-35.388-8.81l-0.005-1.069l77.912-102.11
					c0.084-0.111,0.231-0.156,0.363-0.11c0.132,0.043,0.221,0.167,0.221,0.309L42.879,96.132c0,0.113-0.059,0.217-0.154,0.276
					c-0.052,0.033-0.11,0.05-0.171,0.05c-0.05,0-0.099-0.01-0.144-0.033l-77.451-37.488L-35.046,58.212z"/>
			</g>
			<g id="triangle36_1376_">
				<path fill="#C4C4C4" d="M42.184,141.36l-62.402-37.839c-0.118-0.072-0.179-0.212-0.148-0.349
					c0.029-0.136,0.143-0.238,0.282-0.255l62.6-7.109c0.091-0.008,0.185,0.019,0.255,0.082c0.068,0.062,0.109,0.151,0.109,0.244
					l-0.201,44.949c0,0.117-0.063,0.226-0.165,0.282c-0.05,0.028-0.104,0.042-0.157,0.042
					C42.295,141.407,42.235,141.392,42.184,141.36z M-19.063,103.458l61.093,37.045l0.195-44.006L-19.063,103.458z"/>
			</g>
			<g id="triangle36_1375_">
				<path fill="#C4C4C4" d="M-34.908,85.073l14.996,17.825l61.309-6.962l-76.438-36.998l-0.005-0.727l77.74,37.627
					c0.13,0.064,0.203,0.206,0.179,0.349c-0.023,0.143-0.139,0.252-0.285,0.27l-62.6,7.11c-0.012,0-0.023,0.001-0.036,0.001
					c-0.097,0.001-0.188-0.041-0.251-0.115l-14.604-17.359L-34.908,85.073z"/>
			</g>
			<g id="triangle36_1374_">
				<path fill="#C4C4C4" d="M-34.779,110.203l14.214-7.068l-14.337-17.042l-0.006-1.02l15.108,17.959
					c0.065,0.076,0.091,0.178,0.07,0.277c-0.021,0.098-0.084,0.18-0.174,0.225l-14.872,7.396L-34.779,110.203z"/>
			</g>
			<g id="triangle36_1373_">
				<path fill="#C4C4C4" d="M-34.759,114.283l11.945-9.302l-11.962,5.949l-0.004-0.727l14.585-7.253
					c0.15-0.074,0.332-0.022,0.422,0.119c0.089,0.142,0.056,0.329-0.076,0.432l-14.906,11.605L-34.759,114.283z"/>
			</g>
			<g id="triangle36_1366_">
				<path fill="#C4C4C4" d="M396.679,450.336l-72.466,21.15l-2.367,0.012l73.865-21.56l-131.029-67.447l31.654,89.138l-0.689,0.005
					l-31.854-89.7c-0.045-0.127-0.009-0.268,0.093-0.355c0.101-0.088,0.245-0.105,0.364-0.045l132.487,68.199
					c0.117,0.063,0.188,0.188,0.175,0.322C396.898,450.187,396.807,450.3,396.679,450.336z"/>
			</g>
			<g id="triangle36_1365_">
				<path fill="#C4C4C4" d="M295.646,471.634l-31.732-89.358l-85.922,41.695l105.844,47.723l-1.57,0.008l-105.177-47.423
					c-0.116-0.054-0.191-0.167-0.192-0.293c-0.003-0.126,0.071-0.243,0.184-0.298l86.877-42.157c0.085-0.04,0.18-0.042,0.267-0.01
					c0.085,0.035,0.151,0.105,0.183,0.194l31.93,89.914L295.646,471.634z"/>
			</g>
			<g id="triangle36_1363_">
				<path fill="#C4C4C4" d="M258.334,279.336l-22.343-6.677c-0.137-0.041-0.229-0.162-0.233-0.304
					c-0.005-0.141,0.082-0.268,0.214-0.315l60.381-21.973c0.149-0.056,0.32,0.009,0.397,0.15c0.078,0.143,0.04,0.319-0.091,0.415
					l-38.037,28.651c-0.057,0.042-0.125,0.065-0.194,0.065C258.396,279.35,258.364,279.346,258.334,279.336z M237.121,272.318
					l21.242,6.347l36.16-27.238L237.121,272.318z"/>
			</g>
			<g id="triangle36_1362_">
				<path fill="#C4C4C4" d="M235.781,272.468l-19.121-47.759c-0.049-0.119-0.023-0.253,0.064-0.346
					c0.087-0.092,0.221-0.128,0.338-0.087l79.502,25.787c0.133,0.042,0.223,0.165,0.226,0.304c0.003,0.141-0.084,0.265-0.214,0.313
					l-60.382,21.975c-0.035,0.012-0.073,0.018-0.11,0.018C235.955,272.672,235.832,272.596,235.781,272.468z M217.524,225.112
					l18.743,46.82l59.193-21.54L217.524,225.112z"/>
			</g>
			<g id="triangle36_1361_">
				<path fill="#C4C4C4" d="M263.783,381.905l-28.017-109.478c-0.028-0.113,0.006-0.234,0.091-0.315
					c0.084-0.082,0.208-0.111,0.318-0.078l22.345,6.679c0.132,0.038,0.224,0.157,0.232,0.292l5.672,102.802
					c0.011,0.167-0.108,0.314-0.276,0.34c-0.016,0.003-0.031,0.004-0.047,0.004C263.953,382.151,263.822,382.051,263.783,381.905z
					 M236.542,272.825l27.049,105.694l-5.477-99.248L236.542,272.825z"/>
			</g>
			<g id="triangle36_1360_">
				<path fill="#C4C4C4" d="M78.781,280.008c-0.034-0.155,0.049-0.313,0.197-0.372l137.863-55.351c0.08-0.033,0.17-0.033,0.25,0.001
					c0.078,0.034,0.141,0.1,0.174,0.18l19.12,47.759c0.039,0.098,0.029,0.209-0.028,0.299c-0.058,0.088-0.152,0.145-0.258,0.148
					l-156.985,7.593c-0.004,0-0.009,0-0.013,0C78.948,280.266,78.813,280.159,78.781,280.008z M216.782,225.012L81.02,279.52
					l154.592-7.477L216.782,225.012z"/>
			</g>
			<g id="triangle36_1359_">
				<path fill="#C4C4C4" d="M216.754,224.839l-69.795-57.526c-0.076-0.063-0.12-0.157-0.119-0.256
					c0.002-0.1,0.049-0.191,0.127-0.253l85.891-67.051c0.106-0.082,0.248-0.092,0.362-0.026c0.116,0.065,0.179,0.193,0.162,0.325
					l-16.097,124.577c-0.013,0.117-0.092,0.218-0.202,0.262c-0.039,0.014-0.078,0.021-0.118,0.023
					C216.89,224.915,216.815,224.888,216.754,224.839z M147.688,167.069l69.027,56.893l15.918-123.205L147.688,167.069z"/>
			</g>
			<g id="triangle36_1358_">
				<path fill="#C4C4C4" d="M147.008,167.346c-0.114-0.063-0.18-0.19-0.166-0.321l11.07-100.621
					c0.013-0.104,0.072-0.195,0.163-0.247s0.2-0.059,0.296-0.015l74.82,33.571c0.104,0.046,0.177,0.145,0.191,0.258
					c0.014,0.113-0.034,0.226-0.123,0.296l-85.893,67.05c-0.058,0.046-0.128,0.069-0.198,0.069
					C147.113,167.388,147.058,167.375,147.008,167.346z M158.512,66.921l-10.936,99.408l84.854-66.242L158.512,66.921z"/>
			</g>
			<g id="triangle36_1357_">
				<path fill="#C4C4C4" d="M157.964,66.617l-115.46-178.23c-0.07-0.11-0.07-0.252,0.004-0.359c0.072-0.11,0.207-0.163,0.333-0.138
					L194.01-82.163c0.088,0.018,0.165,0.069,0.213,0.145c0.047,0.075,0.063,0.166,0.042,0.252L158.554,66.516
					c-0.03,0.127-0.133,0.224-0.262,0.246c-0.018,0.003-0.035,0.005-0.053,0.005C158.129,66.766,158.025,66.712,157.964,66.617z
					 M43.471-111.321L158.098,65.625L193.551-81.59L43.471-111.321z"/>
			</g>
			<g id="triangle36_1356_">
				<path fill="#C4C4C4" d="M147.035,167.359l-57.191-25.577c-0.096-0.042-0.166-0.128-0.188-0.23
					c-0.02-0.103,0.008-0.209,0.079-0.287l68.261-75.045c0.095-0.104,0.247-0.136,0.375-0.078c0.129,0.059,0.206,0.192,0.189,0.333
					l-11.069,100.622c-0.011,0.104-0.07,0.195-0.161,0.247c-0.051,0.029-0.105,0.043-0.161,0.043
					C147.123,167.388,147.077,167.378,147.035,167.359z M90.521,141.371l56.372,25.21l10.91-99.179L90.521,141.371z"/>
			</g>
			<g id="triangle36_1355_">
				<path fill="#C4C4C4" d="M89.75,141.72L42.326,96.368c-0.085-0.081-0.121-0.203-0.091-0.318c0.031-0.114,0.12-0.204,0.236-0.234
					l115.685-29.693c0.142-0.036,0.285,0.025,0.359,0.148c0.075,0.125,0.059,0.282-0.037,0.388l-68.261,75.045
					c-0.06,0.065-0.144,0.104-0.229,0.107c-0.004,0-0.008,0-0.011,0C89.893,141.811,89.812,141.779,89.75,141.72z M43.202,96.302
					l46.757,44.716l67.303-73.991L43.202,96.302z"/>
			</g>
			<g id="triangle36_1353_">
				<path fill="#C4C4C4" d="M42.352,96.39c-0.08-0.062-0.126-0.157-0.126-0.258l0.228-207.923c-0.002-0.145,0.094-0.271,0.232-0.312
					c0.142-0.041,0.288,0.014,0.367,0.136L158.511,66.262c0.057,0.088,0.069,0.199,0.029,0.296c-0.037,0.098-0.12,0.171-0.223,0.198
					L42.634,96.449c-0.026,0.007-0.054,0.01-0.08,0.01C42.482,96.459,42.41,96.435,42.352,96.39z M43.103-110.688l-0.224,206.4
					l114.837-29.476L43.103-110.688z"/>
			</g>
			<g id="triangle36_1343_">
				<path fill="#C4C4C4" d="M264.041,382.145l-146.867-27.383c-0.129-0.024-0.232-0.125-0.259-0.253
					c-0.026-0.13,0.024-0.261,0.133-0.336l118.851-82.095c0.086-0.062,0.197-0.074,0.3-0.038c0.1,0.038,0.176,0.122,0.2,0.226
					l28.018,109.478c0.027,0.107-0.002,0.223-0.078,0.304c-0.063,0.065-0.148,0.103-0.236,0.103
					C264.081,382.151,264.061,382.149,264.041,382.145z M118.063,354.264l145.594,27.146l-27.772-108.528L118.063,354.264z"/>
			</g>
			<g id="triangle36_1342_">
				<path fill="#C4C4C4" d="M176.976,424.194l-59.988-69.539c-0.091-0.105-0.105-0.256-0.037-0.375
					c0.07-0.121,0.206-0.184,0.344-0.16l146.864,27.384c0.14,0.026,0.246,0.138,0.266,0.276c0.019,0.141-0.056,0.275-0.181,0.339
					l-86.878,42.156c-0.045,0.021-0.094,0.032-0.142,0.032C177.131,424.307,177.039,424.268,176.976,424.194z M118.088,354.932
					l59.219,68.646l85.759-41.615L118.088,354.932z"/>
			</g>
			<g id="triangle36_1341_">
				<path fill="#C4C4C4" d="M117.154,354.756c-0.092-0.022-0.169-0.084-0.211-0.166L78.81,280.087
					c-0.05-0.099-0.048-0.216,0.007-0.313c0.056-0.095,0.156-0.155,0.268-0.161l156.984-7.592c0.137-0.003,0.278,0.082,0.324,0.22
					c0.047,0.138-0.004,0.29-0.124,0.375l-118.851,82.093c-0.054,0.037-0.117,0.057-0.184,0.059
					C117.208,354.768,117.181,354.766,117.154,354.756z M79.619,280.241l37.735,73.721l117.603-81.233L79.619,280.241z"/>
			</g>
			<g id="triangle36_1340_">
				<path fill="#C4C4C4" d="M136.382,438.702c-0.081-0.045-0.14-0.121-0.161-0.212l-19.306-83.976
					c-0.033-0.146,0.037-0.296,0.171-0.364c0.135-0.065,0.297-0.036,0.394,0.077l59.99,69.541c0.07,0.082,0.097,0.193,0.067,0.296
					c-0.027,0.104-0.104,0.188-0.205,0.225l-40.684,14.436c-0.034,0.012-0.071,0.019-0.107,0.019
					C136.486,438.743,136.432,438.729,136.382,438.702z M117.847,355.651l18.929,82.336l39.89-14.155L117.847,355.651z"/>
			</g>
			<g id="triangle36_1339_">
				<path fill="#C4C4C4" d="M136.511,438.743l-97.432-8.558c-0.128-0.011-0.238-0.096-0.279-0.217
					c-0.042-0.12-0.011-0.255,0.08-0.343l78.128-75.419c0.084-0.082,0.206-0.109,0.318-0.078c0.112,0.032,0.199,0.125,0.226,0.24
					l19.305,83.976c0.023,0.102-0.002,0.207-0.071,0.287c-0.062,0.07-0.152,0.111-0.244,0.111
					C136.531,438.743,136.52,438.743,136.511,438.743z M39.85,429.596l96.27,8.455l-19.074-82.974L39.85,429.596z"/>
			</g>
			<g id="triangle36_1338_">
				<path fill="#C4C4C4" d="M117.084,354.732l-80.868-41.626c-0.101-0.051-0.166-0.149-0.177-0.26
					c-0.011-0.111,0.038-0.22,0.127-0.288L78.9,279.681c0.078-0.06,0.175-0.083,0.271-0.061c0.095,0.021,0.175,0.084,0.22,0.169
					l38.134,74.503c0.063,0.126,0.039,0.28-0.062,0.379c-0.061,0.063-0.144,0.095-0.229,0.097
					C117.184,354.768,117.132,354.755,117.084,354.732z M36.971,312.76l79.51,40.927l-37.491-73.251L36.971,312.76z"/>
			</g>
			<g id="triangle36_1337_">
				<path fill="#C4C4C4" d="M39.026,430.175c-0.11-0.027-0.197-0.111-0.231-0.219L5.205,321.155
					c-0.035-0.115-0.005-0.242,0.08-0.326c0.086-0.087,0.211-0.117,0.326-0.084l111.716,33.384c0.11,0.032,0.196,0.124,0.223,0.235
					c0.028,0.112-0.006,0.23-0.089,0.312l-78.127,75.419c-0.061,0.06-0.143,0.092-0.226,0.092
					C39.082,430.186,39.053,430.183,39.026,430.175z M6.009,321.545l33.254,107.712l77.343-74.663L6.009,321.545z"/>
			</g>
			<g id="triangle36_1336_">
				<path fill="#C4C4C4" d="M117.14,354.754L5.424,321.371c-0.14-0.042-0.234-0.171-0.232-0.317s0.101-0.271,0.242-0.31
					l30.846-8.242c0.082-0.021,0.162-0.013,0.234,0.024l80.869,41.625c0.15,0.076,0.216,0.256,0.154,0.412
					c-0.052,0.127-0.173,0.203-0.303,0.205C117.204,354.768,117.171,354.762,117.14,354.754z M6.715,321.075l107.241,32.048
					l-77.629-39.959L6.715,321.075z"/>
			</g>
			<g id="triangle36_1324_">
				<path fill="#C4C4C4" d="M599.611,396.276l-111.648-20.124c-0.104-0.02-0.193-0.087-0.238-0.182
					c-0.045-0.097-0.041-0.208,0.011-0.299l19.133-34.051c0.043-0.075,0.114-0.133,0.199-0.154c0.081-0.022,0.174-0.011,0.25,0.032
					l92.517,54.178c0.137,0.078,0.196,0.245,0.141,0.393c-0.048,0.129-0.17,0.213-0.305,0.214
					C599.65,396.283,599.631,396.282,599.611,396.276z M488.529,375.591l109.389,19.718l-90.645-53.08L488.529,375.591z"/>
			</g>
			<g id="triangle36_1322_">
				<path fill="#C4C4C4" d="M487.77,376.041l-37.984-45.4c-0.091-0.106-0.103-0.257-0.031-0.376c0.07-0.119,0.211-0.18,0.343-0.154
					l57.12,11.352c0.102,0.02,0.188,0.088,0.232,0.184c0.043,0.094,0.039,0.204-0.013,0.295l-19.133,34.051
					c-0.052,0.094-0.147,0.154-0.253,0.165c-0.01,0-0.021,0.001-0.029,0.001C487.925,376.157,487.832,376.116,487.77,376.041z
					 M450.879,330.931l37.088,44.327l18.681-33.245L450.879,330.931z"/>
			</g>
			<g id="triangle36_1462_">
				<path fill="#C4C4C4" d="M326.396,146.748c0.025,0,0.054-0.004,0.08-0.01c0.174-0.045,0.28-0.224,0.233-0.398l-17.942-69.107
					c-0.045-0.174-0.22-0.281-0.396-0.233c-0.175,0.044-0.28,0.223-0.234,0.396l17.943,69.109
					C326.117,146.651,326.25,146.748,326.396,146.748z"/>
			</g>
			<g id="triangle36_1316_">
				<path fill="#C4C4C4" d="M326.248,146.714l-93.335-46.411c-0.12-0.059-0.191-0.187-0.179-0.32
					c0.011-0.133,0.102-0.246,0.23-0.284l75.393-22.697c0.084-0.024,0.176-0.015,0.253,0.029c0.078,0.043,0.134,0.116,0.156,0.202
					l17.942,69.107c0.033,0.124-0.011,0.255-0.108,0.335c-0.061,0.048-0.132,0.073-0.205,0.073
					C326.345,146.748,326.297,146.738,326.248,146.714z M233.941,100.085l91.957,45.725l-17.678-68.086L233.941,100.085z"/>
			</g>
			<g id="triangle36_1315_">
				<path fill="#C4C4C4" d="M299.775,234.512l-82.851-9.601c-0.134-0.016-0.245-0.111-0.276-0.243
					c-0.035-0.13,0.016-0.268,0.125-0.347l109.431-78.165c0.113-0.083,0.268-0.082,0.38,0c0.114,0.081,0.162,0.225,0.122,0.359
					l-26.581,87.767c-0.041,0.138-0.169,0.23-0.311,0.232C299.803,234.515,299.789,234.513,299.775,234.512z M217.841,224.36
					l81.739,9.473l26.225-86.589L217.841,224.36z"/>
			</g>
			<g id="triangle36_1314_">
				<path fill="#C4C4C4" d="M216.795,224.866c-0.111-0.065-0.172-0.191-0.156-0.319l16.097-124.577
					c0.014-0.104,0.076-0.197,0.169-0.246c0.094-0.05,0.205-0.054,0.299-0.004l93.336,46.411c0.102,0.051,0.172,0.152,0.181,0.266
					c0.008,0.114-0.044,0.225-0.136,0.292l-109.432,78.166c-0.057,0.04-0.122,0.06-0.188,0.062
					C216.905,224.915,216.848,224.897,216.795,224.866z M233.324,100.506l-15.942,123.38l108.38-77.415L233.324,100.506z"/>
			</g>
			<g id="triangle36_1165_">
				<path fill="#C4C4C4" d="M356.563,295.92l-60.295-45.285c-0.101-0.076-0.148-0.203-0.124-0.326l3.351-16.186
					c0.024-0.12,0.114-0.217,0.23-0.249c0.12-0.034,0.245,0.002,0.328,0.093l56.944,61.471c0.114,0.125,0.116,0.314,0.003,0.441
					c-0.063,0.07-0.152,0.107-0.24,0.107C356.69,295.987,356.621,295.966,356.563,295.92z M296.825,250.238l57.229,42.983
					l-54.05-58.346L296.825,250.238z"/>
			</g>
			<g id="triangle36_1164_">
				<path fill="#C4C4C4" d="M356.703,295.981l-98.331-16.637c-0.128-0.021-0.232-0.117-0.264-0.242
					c-0.029-0.127,0.019-0.26,0.122-0.339l38.037-28.651c0.115-0.085,0.275-0.085,0.392,0l60.295,45.288
					c0.12,0.089,0.163,0.251,0.104,0.39c-0.053,0.12-0.17,0.197-0.299,0.197C356.742,295.987,356.723,295.985,356.703,295.981z
					 M259.228,278.829l96.261,16.285l-59.023-44.332L259.228,278.829z"/>
			</g>
			<g id="triangle36_1160_">
				<path fill="#C4C4C4" d="M263.978,382.126c-0.117-0.048-0.196-0.157-0.204-0.284l-5.673-102.801
					c-0.005-0.099,0.035-0.194,0.109-0.262c0.073-0.064,0.176-0.097,0.271-0.078l98.331,16.637c0.123,0.021,0.223,0.11,0.258,0.229
					c0.035,0.119,0,0.249-0.089,0.332l-92.66,86.164c-0.062,0.057-0.14,0.087-0.22,0.087
					C264.06,382.151,264.018,382.143,263.978,382.126z M258.774,279.414l5.612,101.697l91.666-85.239L258.774,279.414z"/>
			</g>
			<g id="triangle36_1159_">
				<path fill="#C4C4C4" d="M-34.279,208.19l112.852,71.032L42.134,141.527l-76.588,32.355l-0.005-0.707l76.684-32.395
					c0.087-0.036,0.188-0.034,0.271,0.008c0.086,0.042,0.148,0.118,0.173,0.209l36.746,138.857c0.034,0.13-0.015,0.268-0.122,0.347
					c-0.058,0.042-0.125,0.063-0.191,0.063c-0.062,0-0.122-0.017-0.176-0.05l-113.201-71.252L-34.279,208.19z"/>
			</g>
			<g id="triangle36_1158_">
				<path fill="#C4C4C4" d="M-33.977,267.493l111.709,11.971l-112.008-70.5l-0.004-0.772l113.553,71.472
					c0.128,0.081,0.184,0.24,0.133,0.383c-0.044,0.133-0.168,0.22-0.305,0.22c-0.012,0-0.024,0-0.037-0.001L-33.975,268.15
					L-33.977,267.493z"/>
			</g>
			<g id="triangle36_1153_">
				<path fill="#C4C4C4" d="M-34.459,173.175l74.938-31.657l-75.075,4.427l-0.003-0.653l76.933-4.536
					c0.178-0.014,0.302,0.097,0.337,0.251c0.036,0.155-0.043,0.313-0.19,0.375l-76.934,32.501L-34.459,173.175z"/>
			</g>
			<g id="triangle36_1145_">
				<path fill="#C4C4C4" d="M487.898,376.132l-113.067-45.663c-0.144-0.059-0.228-0.212-0.198-0.365s0.162-0.264,0.319-0.264
					c0,0,0.001,0,0.002,0l75.081,0.264c0.096,0,0.188,0.042,0.248,0.117l37.986,45.4c0.097,0.113,0.102,0.279,0.014,0.4
					c-0.063,0.086-0.16,0.134-0.262,0.135C487.98,376.157,487.938,376.149,487.898,376.132z M376.646,330.499l110.286,44.541
					l-37.052-44.283L376.646,330.499z"/>
			</g>
			<g id="triangle36_1144_">
				<path fill="#C4C4C4" d="M396.475,450.33c-0.109-0.04-0.188-0.136-0.208-0.249l-21.634-119.855
					c-0.021-0.117,0.021-0.236,0.113-0.313c0.095-0.073,0.22-0.092,0.329-0.049l113.066,45.664c0.108,0.044,0.184,0.14,0.201,0.255
					c0.017,0.114-0.028,0.229-0.118,0.302l-91.432,74.191c-0.059,0.049-0.132,0.072-0.203,0.072
					C396.549,450.348,396.512,450.344,396.475,450.33z M375.379,330.69l21.432,118.731l90.574-73.497L375.379,330.69z"/>
			</g>
			<g id="triangle36_1142_">
				<path fill="#C4C4C4" d="M450.033,330.756l-75.08-0.264c-0.122,0-0.232-0.066-0.288-0.174l-18.194-34.506
					c-0.064-0.119-0.047-0.267,0.041-0.368c0.09-0.103,0.232-0.138,0.36-0.091l93.276,34.771c0.147,0.055,0.234,0.208,0.205,0.363
					c-0.025,0.154-0.161,0.268-0.318,0.268C450.035,330.756,450.034,330.756,450.033,330.756z M375.149,329.84l73.058,0.257
					l-90.762-33.833L375.149,329.84z"/>
			</g>
			<g id="triangle36_1141_">
				<path fill="#C4C4C4" d="M396.438,450.314l-132.488-68.199c-0.109-0.058-0.18-0.173-0.176-0.298
					c0.002-0.123,0.076-0.236,0.188-0.289l110.854-51.657c0.092-0.04,0.199-0.039,0.289,0.007s0.152,0.132,0.17,0.23l21.635,119.857
					c0.021,0.123-0.027,0.247-0.127,0.32c-0.058,0.042-0.125,0.063-0.191,0.063C396.537,450.35,396.484,450.338,396.438,450.314z
					 M264.84,381.838l131.309,67.593L374.707,330.64L264.84,381.838z"/>
			</g>
			<g id="triangle36_1140_">
				<path fill="#C4C4C4" d="M263.829,382.005c-0.09-0.132-0.07-0.311,0.048-0.421l92.658-86.162c0.076-0.07,0.18-0.103,0.277-0.084
					c0.101,0.018,0.186,0.08,0.233,0.17l18.196,34.506c0.043,0.079,0.049,0.172,0.021,0.258c-0.028,0.084-0.091,0.152-0.171,0.191
					L264.237,382.12c-0.044,0.02-0.09,0.03-0.136,0.03C263.995,382.151,263.891,382.1,263.829,382.005z M356.669,296.19
					l-90.832,84.465l108.668-50.639L356.669,296.19z"/>
			</g>
			<g id="triangle36_1139_">
				<path fill="#C4C4C4" d="M-33.631,335.292l38.383-14.297l-38.568-22.136l-0.004-0.755l39.5,22.671
					c0.109,0.064,0.173,0.184,0.162,0.311c-0.01,0.126-0.093,0.233-0.21,0.278l-39.26,14.623L-33.631,335.292z"/>
			</g>
			<g id="triangle36_1460_">
				<path fill="#C4C4C4" d="M308.453,77.64c0.104-0.001,0.207-0.051,0.269-0.145c0.101-0.149,0.062-0.353-0.089-0.453L233.296,26.66
					c-0.147-0.101-0.352-0.06-0.452,0.089c-0.101,0.149-0.06,0.352,0.09,0.452l75.336,50.384
					C308.327,77.623,308.39,77.641,308.453,77.64z"/>
			</g>
			<g id="triangle36_1126_">
				<path fill="#C4C4C4" d="M232.864,100.272c-0.083-0.061-0.132-0.159-0.132-0.262l0.057-73.08c0-0.121,0.065-0.231,0.172-0.288
					c0.107-0.057,0.235-0.05,0.335,0.017l75.337,50.383c0.104,0.07,0.16,0.195,0.141,0.32c-0.018,0.125-0.107,0.228-0.229,0.264
					l-75.392,22.696c-0.031,0.009-0.063,0.014-0.093,0.014C232.99,100.337,232.921,100.315,232.864,100.272z M233.441,27.541
					l-0.056,72.031l74.309-22.371L233.441,27.541z"/>
			</g>
			<g id="triangle36_1121_">
				<path fill="#C4C4C4" d="M232.925,100.308l-74.821-33.57c-0.114-0.052-0.189-0.163-0.193-0.288
					c-0.004-0.124,0.064-0.24,0.174-0.299l74.88-39.509c0.102-0.054,0.223-0.05,0.319,0.01c0.099,0.059,0.158,0.166,0.158,0.28
					l-0.058,73.079c0,0.111-0.056,0.214-0.147,0.274c-0.053,0.035-0.116,0.052-0.176,0.052
					C233.015,100.337,232.969,100.328,232.925,100.308z M158.982,66.416l73.75,33.091l0.056-72.036L158.982,66.416z"/>
			</g>
			<g id="triangle36_1117_">
				<path fill="#C4C4C4" d="M158.037,66.698c-0.103-0.08-0.146-0.21-0.117-0.334l35.711-148.282c0.033-0.141,0.156-0.242,0.299-0.25
					c0.14-0.019,0.276,0.08,0.325,0.215L233.422,26.82c0.055,0.153-0.011,0.323-0.154,0.399L158.39,66.728
					c-0.049,0.025-0.099,0.037-0.15,0.038C158.167,66.766,158.097,66.743,158.037,66.698z M194.01-80.708L158.724,65.814
					l73.988-39.04L194.01-80.708z"/>
			</g>
			<g id="triangle36_1116_">
				<path fill="#C4C4C4" d="M-33.4,380.519l71.922,48.552L5.391,321.753l-38.835,49.97l-0.006-1.058l38.71-49.808
					c0.073-0.096,0.191-0.143,0.316-0.121c0.119,0.021,0.217,0.108,0.252,0.224l33.59,108.802c0.042,0.133-0.007,0.277-0.116,0.359
					c-0.058,0.043-0.125,0.064-0.193,0.064c-0.063,0-0.128-0.02-0.185-0.057l-72.319-48.82L-33.4,380.519z"/>
			</g>
			<g id="triangle36_1115_">
				<path fill="#C4C4C4" d="M-33.059,447.451l71.376-17.731l-71.713-48.41l-0.005-0.79l72.689,49.069
					c0.107,0.073,0.162,0.201,0.139,0.328c-0.021,0.127-0.118,0.229-0.241,0.26l-72.241,17.946L-33.059,447.451z"/>
			</g>
			<g id="triangle36_1114_">
				<path fill="#C4C4C4" d="M-33.45,370.666l38.006-48.901l-38.184,14.223l-0.003-0.695l39.034-14.54
					c0.136-0.05,0.291-0.003,0.377,0.112c0.087,0.119,0.085,0.279-0.005,0.395l-39.22,50.465L-33.45,370.666z"/>
			</g>
		</g>
		<g>
			<g>
				<circle fill="#C4C4C4" cx="21.229" cy="-131.082" r="3.402"/>
				<path fill="#231F20" d="M21.212-134.484c1.878-0.01,3.408,1.505,3.418,3.385c0.011,1.879-1.505,3.409-3.383,3.419
					c-1.88,0.009-3.411-1.506-3.421-3.385C17.817-132.944,19.332-134.474,21.212-134.484 M21.205-135.79
					c-2.596,0.014-4.696,2.136-4.683,4.732c0.013,2.594,2.134,4.696,4.729,4.682s4.696-2.136,4.683-4.731
					C25.922-133.702,23.8-135.802,21.205-135.79L21.205-135.79z"/>
			</g>
			<g>
				<circle fill="#C4C4C4" cx="555.188" cy="423.022" r="2.1"/>
				<path fill="#231F20" d="M555.178,420.922c1.159-0.007,2.104,0.93,2.109,2.089c0.007,1.159-0.928,2.104-2.088,2.11
					c-1.159,0.006-2.104-0.93-2.109-2.089S554.02,420.928,555.178,420.922 M555.172,419.619c-1.879,0.009-3.396,1.545-3.387,3.421
					s1.545,3.396,3.421,3.387c1.878-0.01,3.396-1.545,3.387-3.422C558.583,421.128,557.047,419.609,555.172,419.619L555.172,419.619
					z"/>
			</g>
			<g>
				<circle fill="#C4C4C4" cx="515.846" cy="448.121" r="2.907"/>
				<path fill="#231F20" d="M515.831,445.214c1.604-0.007,2.913,1.287,2.921,2.892c0.009,1.606-1.286,2.914-2.892,2.922
					c-1.604,0.008-2.911-1.287-2.92-2.892C512.933,446.532,514.226,445.224,515.831,445.214 M515.824,443.912
					c-2.32,0.011-4.201,1.91-4.189,4.231c0.012,2.323,1.911,4.201,4.232,4.189c2.322-0.012,4.202-1.91,4.189-4.232
					C520.045,445.778,518.146,443.899,515.824,443.912L515.824,443.912z"/>
			</g>
			<g>
				<circle fill="#C4C4C4" cx="-20.048" cy="103.242" r="2.521"/>
				<path fill="#231F20" d="M-20.062,100.722c1.392-0.007,2.526,1.116,2.533,2.508s-1.115,2.527-2.507,2.534
					c-1.393,0.007-2.528-1.116-2.535-2.508C-22.577,101.863-21.455,100.729-20.062,100.722 M-20.068,99.417
					c-2.109,0.011-3.818,1.736-3.807,3.845c0.011,2.11,1.734,3.817,3.845,3.807c2.11-0.011,3.818-1.736,3.808-3.845
					C-16.234,101.114-17.96,99.406-20.068,99.417L-20.068,99.417z"/>
			</g>
			<g>
				<circle fill="#C4C4C4" cx="147.167" cy="167.062" r="4.322"/>
				<path fill="#231F20" d="M147.145,162.74c2.387-0.013,4.332,1.913,4.345,4.299c0.012,2.388-1.913,4.333-4.3,4.345
					s-4.332-1.912-4.345-4.299C142.833,164.698,144.758,162.751,147.145,162.74 M147.138,161.435
					c-3.103,0.016-5.612,2.553-5.597,5.655s2.554,5.613,5.654,5.598c3.104-0.017,5.614-2.553,5.598-5.655
					C152.777,163.93,150.24,161.419,147.138,161.435L147.138,161.435z"/>
			</g>
			<g>
				<circle fill="#C4C4C4" cx="89.976" cy="141.485" r="1.851"/>
				<path fill="#231F20" d="M89.967,139.634c1.023-0.004,1.854,0.819,1.859,1.842c0.006,1.021-0.818,1.854-1.841,1.86
					c-1.021,0.004-1.854-0.819-1.86-1.842C88.12,140.472,88.945,139.639,89.967,139.634 M89.961,138.329
					c-1.74,0.009-3.149,1.432-3.141,3.172c0.01,1.74,1.433,3.148,3.172,3.14c1.74-0.009,3.147-1.432,3.14-3.172
					C93.123,139.728,91.7,138.32,89.961,138.329L89.961,138.329z"/>
			</g>
			<g>
				<circle fill="#C4C4C4" cx="42.553" cy="96.132" r="4.258"/>
				<path fill="#231F20" d="M42.531,91.874c2.352-0.011,4.268,1.886,4.279,4.237c0.012,2.352-1.885,4.268-4.236,4.279
					c-2.352,0.012-4.268-1.885-4.279-4.236C38.282,93.802,40.179,91.887,42.531,91.874 M42.523,90.57
					c-3.067,0.016-5.55,2.524-5.534,5.591c0.017,3.067,2.524,5.55,5.591,5.535c3.068-0.016,5.55-2.524,5.535-5.592
					C48.099,93.037,45.591,90.554,42.523,90.57L42.523,90.57z"/>
			</g>
			<g>
				<circle fill="#C4C4C4" cx="42.779" cy="-111.791" r="2.66"/>
				<path fill="#231F20" d="M42.766-114.45c1.468-0.008,2.666,1.177,2.673,2.646c0.006,1.468-1.178,2.666-2.646,2.672
					c-1.47,0.008-2.666-1.177-2.673-2.646C40.111-113.247,41.296-114.442,42.766-114.45 M42.758-115.755
					c-2.186,0.011-3.956,1.799-3.944,3.985c0.011,2.186,1.798,3.956,3.985,3.945c2.186-0.012,3.955-1.799,3.943-3.985
					C46.731-113.997,44.944-115.766,42.758-115.755L42.758-115.755z"/>
			</g>
			<g>
				<circle fill="#C4C4C4" cx="236.083" cy="272.348" r="3.847"/>
				<path fill="#231F20" d="M236.064,268.5c2.124-0.012,3.855,1.702,3.865,3.826c0.012,2.125-1.701,3.857-3.827,3.868
					c-2.124,0.011-3.855-1.704-3.866-3.829C232.225,270.242,233.939,268.511,236.064,268.5 M236.057,267.196
					c-2.841,0.014-5.141,2.336-5.126,5.178c0.016,2.842,2.338,5.141,5.18,5.126c2.84-0.015,5.14-2.338,5.125-5.18
					C241.221,269.48,238.898,267.18,236.057,267.196L236.057,267.196z"/>
			</g>
			<g>
				<circle fill="#C4C4C4" cx="177.224" cy="423.981" r="3.305"/>
				<path fill="#231F20" d="M177.207,420.676c1.824-0.01,3.313,1.461,3.32,3.287c0.009,1.826-1.463,3.313-3.287,3.322
					c-1.826,0.008-3.313-1.463-3.322-3.287S175.382,420.685,177.207,420.676 M177.199,419.372c-2.541,0.014-4.6,2.09-4.586,4.633
					c0.012,2.542,2.092,4.599,4.634,4.587c2.542-0.013,4.599-2.093,4.586-4.634C181.819,421.417,179.741,419.358,177.199,419.372
					L177.199,419.372z"/>
			</g>
			<g>
				<circle fill="#C4C4C4" cx="136.539" cy="438.417" r="4.285"/>
				<path fill="#231F20" d="M136.517,434.131c2.367-0.012,4.296,1.896,4.309,4.263c0.012,2.368-1.897,4.296-4.265,4.308
					c-2.366,0.012-4.294-1.896-4.308-4.264C132.242,436.071,134.151,434.143,136.517,434.131 M136.511,432.827
					c-3.082,0.015-5.577,2.535-5.563,5.619c0.017,3.082,2.538,5.576,5.619,5.561c3.082-0.015,5.577-2.536,5.563-5.618
					C142.113,435.305,139.592,432.81,136.511,432.827L136.511,432.827z"/>
			</g>
			<g>
				<circle fill="#C4C4C4" cx="117.234" cy="354.441" r="2.399"/>
				<path fill="#231F20" d="M117.222,352.042c1.324-0.006,2.403,1.063,2.411,2.388c0.005,1.325-1.062,2.403-2.387,2.411
					c-1.325,0.006-2.404-1.063-2.411-2.388S115.896,352.048,117.222,352.042 M117.215,350.737c-2.042,0.012-3.695,1.682-3.685,3.723
					c0.011,2.042,1.681,3.694,3.723,3.686c2.042-0.012,3.694-1.682,3.685-3.723C120.927,352.38,119.257,350.726,117.215,350.737
					L117.215,350.737z"/>
			</g>
			<g>
				<circle fill="#C4C4C4" cx="36.365" cy="312.816" r="4.643"/>
				<path fill="#231F20" d="M36.341,308.173c2.563-0.014,4.653,2.055,4.667,4.62c0.014,2.563-2.055,4.654-4.619,4.666
					c-2.564,0.014-4.654-2.055-4.667-4.62C31.709,310.276,33.775,308.186,36.341,308.173 M36.335,306.869
					c-3.281,0.017-5.936,2.699-5.919,5.979c0.017,3.279,2.699,5.934,5.979,5.916c3.28-0.016,5.935-2.698,5.918-5.977
					C42.296,309.506,39.613,306.851,36.335,306.869L36.335,306.869z"/>
			</g>
			<g>
				<circle fill="#C4C4C4" cx="599.668" cy="395.956" r="1.91"/>
				<path fill="#231F20" d="M599.658,394.045c1.056-0.004,1.915,0.846,1.921,1.902c0.005,1.053-0.846,1.913-1.901,1.918
					c-1.055,0.006-1.914-0.845-1.92-1.9C597.753,394.911,598.604,394.052,599.658,394.045 M599.652,392.742
					c-1.772,0.009-3.208,1.458-3.198,3.231c0.009,1.771,1.459,3.206,3.23,3.198c1.773-0.009,3.208-1.46,3.198-3.231
					C602.875,394.167,601.424,392.732,599.652,392.742L599.652,392.742z"/>
			</g>
			<g>
				<circle fill="#C4C4C4" cx="507.152" cy="341.78" r="3.088"/>
				<path fill="#231F20" d="M507.137,338.692c1.705-0.01,3.096,1.367,3.104,3.073c0.009,1.705-1.367,3.095-3.072,3.103
					c-1.707,0.009-3.096-1.367-3.104-3.072C504.055,340.09,505.43,338.7,507.137,338.692 M507.13,337.386
					c-2.423,0.013-4.384,1.993-4.371,4.417c0.013,2.422,1.993,4.382,4.416,4.37c2.422-0.013,4.383-1.993,4.371-4.415
					C511.533,339.334,509.552,337.375,507.13,337.386L507.13,337.386z"/>
			</g>
			<g>
				<circle fill="#C4C4C4" cx="326.394" cy="146.422" r="1.865"/>
				<path fill="#231F20" d="M326.385,144.557c1.03-0.005,1.869,0.825,1.874,1.855s-0.827,1.869-1.855,1.875
					c-1.03,0.005-1.869-0.826-1.875-1.855C324.523,145.401,325.354,144.563,326.385,144.557 M326.378,143.252
					c-1.747,0.009-3.164,1.438-3.153,3.186c0.009,1.748,1.438,3.163,3.186,3.153c1.748-0.009,3.162-1.438,3.152-3.186
					C329.555,144.658,328.125,143.244,326.378,143.252L326.378,143.252z"/>
			</g>
			<g>
				<circle fill="#C4C4C4" cx="216.963" cy="224.587" r="4.251"/>
				<path fill="#231F20" d="M216.941,220.336c2.348-0.012,4.26,1.882,4.271,4.229c0.012,2.348-1.881,4.261-4.229,4.272
					c-2.348,0.013-4.261-1.88-4.272-4.229C212.699,222.261,214.594,220.348,216.941,220.336 M216.934,219.032
					c-3.063,0.015-5.543,2.52-5.526,5.584c0.015,3.064,2.52,5.543,5.584,5.526c3.063-0.015,5.543-2.52,5.526-5.583
					C222.503,221.495,219.998,219.015,216.934,219.032L216.934,219.032z"/>
			</g>
			<g>
				<circle fill="#C4C4C4" cx="299.813" cy="234.188" r="2.121"/>
				<path fill="#231F20" d="M299.803,232.067c1.172-0.006,2.125,0.939,2.131,2.11c0.007,1.171-0.938,2.126-2.109,2.132
					c-1.172,0.006-2.125-0.939-2.132-2.11C297.687,233.028,298.631,232.075,299.803,232.067 M299.795,230.762
					c-1.888,0.01-3.416,1.555-3.406,3.443c0.009,1.89,1.553,3.418,3.442,3.409c1.888-0.009,3.419-1.555,3.407-3.443
					C303.229,232.282,301.686,230.753,299.795,230.762L299.795,230.762z"/>
			</g>
			<g>
				<circle fill="#C4C4C4" cx="296.464" cy="250.374" r="2.397"/>
				<path fill="#231F20" d="M296.451,247.977c1.324-0.007,2.402,1.061,2.411,2.384c0.005,1.324-1.063,2.403-2.386,2.41
					c-1.324,0.007-2.403-1.062-2.41-2.386C294.061,249.061,295.129,247.984,296.451,247.977 M296.444,246.672
					c-2.041,0.01-3.692,1.68-3.683,3.72c0.01,2.042,1.68,3.694,3.722,3.684c2.04-0.011,3.692-1.679,3.682-3.722
					C300.155,248.314,298.487,246.661,296.444,246.672L296.444,246.672z"/>
			</g>
			<g>
				<circle fill="#C4C4C4" cx="258.426" cy="279.025" r="1.876"/>
				<path fill="#231F20" d="M258.417,277.149c1.036-0.007,1.881,0.83,1.886,1.865c0.006,1.036-0.831,1.881-1.867,1.887
					c-1.035,0.004-1.88-0.832-1.886-1.867C256.545,277.998,257.382,277.153,258.417,277.149 M258.41,275.842
					c-1.754,0.009-3.174,1.444-3.164,3.198c0.009,1.755,1.443,3.173,3.197,3.163c1.754-0.008,3.174-1.441,3.164-3.195
					C261.6,277.253,260.164,275.834,258.41,275.842L258.41,275.842z"/>
			</g>
			<g>
				<circle fill="#C4C4C4" cx="79.099" cy="279.938" r="3.261"/>
				<path fill="#231F20" d="M79.082,276.677c1.802-0.01,3.271,1.442,3.279,3.246c0.009,1.8-1.443,3.269-3.245,3.276
					c-1.802,0.01-3.27-1.442-3.278-3.244C75.828,278.154,77.281,276.686,79.082,276.677 M79.075,275.373
					c-2.518,0.012-4.556,2.071-4.542,4.59c0.012,2.519,2.071,4.556,4.588,4.544c2.521-0.014,4.559-2.073,4.546-4.592
					C83.653,277.398,81.594,275.358,79.075,275.373L79.075,275.373z"/>
			</g>
			<g>
				<circle fill="#C4C4C4" cx="42.352" cy="141.081" r="3.75"/>
				<path fill="#231F20" d="M42.333,137.331c2.071-0.011,3.759,1.66,3.769,3.73c0.012,2.071-1.658,3.758-3.73,3.77
					c-2.07,0.01-3.758-1.66-3.77-3.731C38.592,139.029,40.264,137.341,42.333,137.331 M42.326,136.026
					c-2.787,0.014-5.042,2.293-5.028,5.081c0.015,2.787,2.293,5.042,5.081,5.028c2.786-0.014,5.042-2.293,5.029-5.08
					C47.393,138.268,45.113,136.012,42.326,136.026L42.326,136.026z"/>
			</g>
			<g>
				<circle fill="#C4C4C4" cx="488.02" cy="375.831" r="4.066"/>
				<path fill="#231F20" d="M487.999,371.764c2.245-0.011,4.075,1.8,4.087,4.046c0.012,2.245-1.8,4.075-4.045,4.087
					c-2.246,0.012-4.076-1.8-4.088-4.045C483.941,373.606,485.753,371.776,487.999,371.764 M487.992,370.459
					c-2.962,0.017-5.359,2.437-5.344,5.399c0.016,2.961,2.438,5.358,5.398,5.343c2.961-0.014,5.358-2.436,5.344-5.398
					C493.376,372.842,490.953,370.444,487.992,370.459L487.992,370.459z"/>
			</g>
			<g>
				<circle fill="#C4C4C4" cx="450.034" cy="330.43" r="2.342"/>
				<path fill="#231F20" d="M450.021,328.088c1.293-0.005,2.348,1.037,2.354,2.33s-1.036,2.348-2.329,2.354
					c-1.295,0.007-2.348-1.037-2.354-2.33C447.686,329.15,448.729,328.095,450.021,328.088 M450.016,326.784
					c-2.012,0.011-3.639,1.654-3.628,3.665s1.655,3.639,3.665,3.628c2.011-0.01,3.638-1.654,3.628-3.664
					C453.67,328.4,452.025,326.774,450.016,326.784L450.016,326.784z"/>
			</g>
			<g>
				<circle fill="#C4C4C4" cx="396.588" cy="450.023" r="3.679"/>
				<path fill="#231F20" d="M396.569,446.344c2.03-0.01,3.687,1.629,3.697,3.66c0.01,2.032-1.63,3.688-3.66,3.698
					c-2.034,0.011-3.688-1.628-3.698-3.66C392.897,448.011,394.537,446.355,396.569,446.344 M396.563,445.04
					c-2.75,0.015-4.973,2.262-4.96,5.01c0.014,2.749,2.263,4.973,5.01,4.959c2.749-0.015,4.973-2.262,4.959-5.01
					C401.558,447.25,399.31,445.026,396.563,445.04L396.563,445.04z"/>
			</g>
			<g>
				<circle fill="#C4C4C4" cx="374.953" cy="330.167" r="3.848"/>
				<path fill="#231F20" d="M374.934,326.319c2.125-0.011,3.855,1.704,3.866,3.827c0.011,2.126-1.702,3.857-3.827,3.868
					c-2.124,0.012-3.855-1.703-3.865-3.827C371.096,328.061,372.809,326.331,374.934,326.319 M374.927,325.015
					c-2.841,0.015-5.14,2.337-5.125,5.177c0.015,2.842,2.337,5.141,5.179,5.127c2.84-0.016,5.14-2.338,5.125-5.178
					C380.09,327.299,377.769,325,374.927,325.015L374.927,325.015z"/>
			</g>
			<g>
				<circle fill="#C4C4C4" cx="264.1" cy="381.824" r="3.356"/>
				<path fill="#231F20" d="M264.082,378.467c1.854-0.01,3.364,1.485,3.373,3.339c0.011,1.854-1.486,3.364-3.338,3.374
					c-1.854,0.009-3.363-1.486-3.373-3.338C260.734,379.987,262.229,378.477,264.082,378.467 M264.076,377.163
					c-2.57,0.014-4.65,2.115-4.637,4.686c0.012,2.57,2.114,4.65,4.684,4.637c2.57-0.014,4.65-2.115,4.638-4.684
					C268.747,379.231,266.646,377.15,264.076,377.163L264.076,377.163z"/>
			</g>
			<g>
				<circle fill="#C4C4C4" cx="356.759" cy="295.661" r="2.463"/>
				<path fill="#231F20" d="M356.746,293.198c1.359-0.008,2.469,1.088,2.475,2.449c0.008,1.36-1.09,2.469-2.449,2.477
					c-1.361,0.006-2.47-1.091-2.476-2.451C354.288,294.312,355.386,293.204,356.746,293.198 M356.74,291.891
					c-2.078,0.012-3.761,1.711-3.75,3.788c0.01,2.077,1.71,3.759,3.787,3.748c2.077-0.009,3.76-1.709,3.75-3.786
					C360.516,293.563,358.816,291.88,356.74,291.891L356.74,291.891z"/>
			</g>
			<g>
				<circle fill="#C4C4C4" cx="308.451" cy="77.314" r="2.947"/>
				<path fill="#231F20" d="M308.436,74.367c1.627-0.008,2.954,1.304,2.963,2.932c0.008,1.627-1.306,2.953-2.932,2.961
					c-1.628,0.009-2.954-1.304-2.963-2.931C305.496,75.702,306.809,74.375,308.436,74.367 M308.43,73.063
					c-2.344,0.013-4.242,1.93-4.229,4.273c0.012,2.344,1.929,4.241,4.272,4.23c2.344-0.012,4.242-1.929,4.229-4.273
					C312.689,74.948,310.773,73.05,308.43,73.063L308.43,73.063z"/>
			</g>
			<g>
				<circle fill="#C4C4C4" cx="233.059" cy="100.011" r="2.189"/>
				<path fill="#231F20" d="M233.048,97.822c1.208-0.006,2.193,0.968,2.2,2.177c0.006,1.209-0.969,2.194-2.178,2.2
					c-1.209,0.006-2.193-0.969-2.201-2.177C230.865,98.813,231.839,97.828,233.048,97.822 M233.041,96.517
					c-1.927,0.01-3.485,1.585-3.476,3.511c0.009,1.927,1.585,3.486,3.512,3.477c1.926-0.01,3.485-1.586,3.476-3.512
					C236.542,98.066,234.967,96.507,233.041,96.517L233.041,96.517z"/>
			</g>
			<g>
				<circle fill="#C4C4C4" cx="225.216" cy="-91.703" r="3.478"/>
				<path fill="#231F20" d="M225.198-95.181c1.921-0.01,3.486,1.539,3.497,3.46c0.008,1.92-1.54,3.486-3.462,3.495
					c-1.92,0.01-3.485-1.539-3.495-3.459C221.728-93.606,223.277-95.171,225.198-95.181 M225.192-96.486
					c-2.638,0.014-4.772,2.17-4.76,4.807c0.014,2.637,2.171,4.771,4.809,4.759c2.637-0.014,4.771-2.17,4.757-4.807
					C229.984-94.365,227.828-96.499,225.192-96.486L225.192-96.486z"/>
			</g>
			<g>
				<circle fill="#C4C4C4" cx="233.115" cy="26.931" r="4.711"/>
				<path fill="#231F20" d="M233.091,22.22c2.602-0.014,4.722,2.085,4.735,4.687c0.014,2.602-2.085,4.722-4.687,4.735
					c-2.603,0.013-4.722-2.085-4.735-4.688C228.391,24.353,230.49,22.232,233.091,22.22 M233.084,20.915
					c-3.316,0.017-6.002,2.729-5.985,6.046c0.017,3.317,2.729,6.002,6.047,5.986c3.317-0.018,6.002-2.73,5.985-6.047
					C239.113,23.583,236.4,20.898,233.084,20.915L233.084,20.915z"/>
			</g>
			<g>
				<path fill="#C4C4C4" d="M158.225,64.035c1.328-0.006,2.41,1.064,2.418,2.392c0.006,1.328-1.064,2.41-2.395,2.417
					c-1.326,0.007-2.408-1.064-2.414-2.392C155.826,65.124,156.896,64.041,158.225,64.035z"/>
				<path fill="#231F20" d="M158.225,64.035c1.328-0.006,2.41,1.064,2.418,2.392c0.006,1.328-1.064,2.41-2.395,2.417
					c-1.326,0.007-2.408-1.064-2.414-2.392C155.826,65.124,156.896,64.041,158.225,64.035 M158.219,62.73
					c-2.047,0.011-3.701,1.684-3.691,3.729c0.011,2.045,1.684,3.7,3.729,3.69c2.044-0.01,3.7-1.684,3.69-3.729
					C161.936,64.375,160.264,62.719,158.219,62.73L158.219,62.73z"/>
			</g>
			<g>
				<circle fill="#C4C4C4" cx="193.949" cy="-81.843" r="2.673"/>
				<path fill="#231F20" d="M193.936-84.516c1.475-0.007,2.678,1.184,2.685,2.66c0.009,1.477-1.183,2.679-2.658,2.687
					c-1.478,0.007-2.68-1.184-2.688-2.659C191.267-83.305,192.457-84.508,193.936-84.516 M193.927-85.821
					c-2.192,0.012-3.968,1.806-3.957,3.999c0.012,2.193,1.806,3.969,3.997,3.958c2.194-0.012,3.97-1.805,3.959-3.999
					C197.914-84.056,196.12-85.832,193.927-85.821L193.927-85.821z"/>
			</g>
			<g>
				<circle fill="#C4C4C4" cx="39.106" cy="429.859" r="2.498"/>
				<path fill="#231F20" d="M39.094,427.362c1.38-0.007,2.504,1.105,2.511,2.484c0.006,1.38-1.105,2.504-2.485,2.511
					c-1.379,0.007-2.503-1.105-2.51-2.484C36.603,428.493,37.716,427.37,39.094,427.362 M39.088,426.057
					c-2.097,0.012-3.794,1.727-3.783,3.822s1.726,3.793,3.822,3.781c2.096-0.011,3.793-1.724,3.781-3.82
					C42.897,427.743,41.185,426.047,39.088,426.057L39.088,426.057z"/>
			</g>
			<g>
				<circle fill="#C4C4C4" cx="5.518" cy="321.058" r="3.108"/>
				<path fill="#231F20" d="M5.502,317.95c1.716-0.008,3.115,1.375,3.123,3.093c0.009,1.716-1.375,3.116-3.092,3.124
					c-1.718,0.01-3.117-1.376-3.125-3.093C2.398,319.358,3.783,317.958,5.502,317.95 M5.494,316.645
					c-2.434,0.012-4.402,2.003-4.39,4.436c0.012,2.434,2.001,4.403,4.435,4.391c2.435-0.012,4.404-2.002,4.391-4.436
					C9.919,318.601,7.928,316.633,5.494,316.645L5.494,316.645z"/>
			</g>
		</g>
	</g>
</g>
</svg>
