<?xml version="1.0" encoding="utf-8"?>
<!-- Generator: Adobe Illustrator 24.0.2, SVG Export Plug-In . SVG Version: 6.00 Build 0)  -->
<svg version="1.1" id="Capa_1" xmlns="http://www.w3.org/2000/svg" xmlns:xlink="http://www.w3.org/1999/xlink" x="0px" y="0px"
	 viewBox="0 0 398.8 398.8" style="enable-background:new 0 0 398.8 398.8;" xml:space="preserve">
<style type="text/css">
	.st0{fill:#FFFFFF;stroke:#FFFFFF;stroke-width:10;stroke-miterlimit:10;}
</style>
<g>
	<g>
		<path class="st0" d="M324.5,128c-0.8-9.3-4.6-17.8-10.8-24c-6.2-6.2-14.3-10.1-24-10.1h-20.5V76.1c0-19.4-7.7-36.8-20.5-49.2
			c-12.8-12.8-30.2-20.5-49.2-20.5c-19.4,0-36.8,7.7-49.2,20.5c-12.8,12.4-20.5,29.8-20.5,49.2v17.8h-20.5c-9.7,0-17.8,3.9-24,10.1
			c-6.2,6.2-10.1,14.7-10.8,24L53.8,357.2c0,1.2,0,2.3,0,2.7c0,8.5,3.5,16.7,9.7,22.5c5.8,5.4,13.6,9.3,21.7,10.1h0.4
			c1.2,0,2.3,0,3.1,0h221.5c0.8,0,1.9,0,3.1,0c8.5-0.8,16.3-4.6,22.1-10.1c6.2-5.8,9.7-13.9,9.7-22.8c0-0.8,0-1.5,0-2.7L324.5,128z
			 M151,76.1c0-13.6,5.4-25.6,14.3-34.5c8.9-8.9,20.9-14.3,34.5-14.3s25.6,5.4,34.5,14.3c8.9,8.9,14.3,20.9,14.3,34.5v17.8H151V76.1
			z M323.3,359.9c0,3.1-1.2,5.8-3.5,7.7c-2.3,2.3-5.8,3.9-8.9,4.3c0,0-0.4,0-1.2,0H88.7c-0.8,0-1.2,0-1.2,0h-0.4
			c-3.5-0.4-6.6-1.9-8.9-4.3c-2.3-1.9-3.5-4.6-3.5-7.7v-1.2l20.5-228.9c0.4-4.3,2.3-8.1,5-10.8c2.3-2.3,5.4-3.9,8.9-3.9h20.5v47.2
			c0,5.8,4.6,10.5,10.5,10.5s10.5-4.6,10.5-10.5v-47.2h96.8v47.2c0,5.8,4.6,10.5,10.5,10.5s10.5-4.6,10.5-10.5v-47.2h20.5
			c3.5,0,6.6,1.5,8.9,3.9c2.7,2.7,4.6,6.6,5,10.8l20.5,229.2L323.3,359.9L323.3,359.9z"/>
	</g>
</g>
</svg>
