<?xml version="1.0" encoding="utf-8"?>
<!-- Generator: Adobe Illustrator 24.0.2, SVG Export Plug-In . SVG Version: 6.00 Build 0)  -->
<svg version="1.1" id="Capa_1" xmlns="http://www.w3.org/2000/svg" xmlns:xlink="http://www.w3.org/1999/xlink" x="0px" y="0px"
	 viewBox="0 0 612 612" style="enable-background:new 0 0 612 612;" xml:space="preserve">
<style type="text/css">
	.st0{fill:#FFFFFF;}
</style>
<g>
	<path class="st0" d="M465.5,324.2c-3,11.2-13.2,18.6-24.3,18.6c-2.2,0-4.4-0.2-6.5-0.8l-81.5-21.9c-11-3-18.6-12.9-18.6-24.3V170.3
		c0-13.9,11.2-25.1,25.1-25.1c13.9,0,25.1,11.2,25.1,25.1v106.3l62.9,16.9C461.2,297.1,469.2,310.9,465.5,324.2z M366.6,46.7
		c-88.5,0-166.1,46.9-209.2,117.2l26,62.6c27-75.2,98.7-129.2,183.2-129.2c107.6,0,194.8,87.2,194.8,194.8
		c0,76.6-44.4,142.8-108.8,174.6l-0.6,55.5c93.4-34.7,160-124.6,160-230.1C612,156.6,502.1,46.7,366.6,46.7z M377.7,553.9
		c-30.4,30.4-143.8,1.6-255.9-110.5C9.7,331.4-19.1,218,11.3,187.6c26.4-26.4,58.5-72.4,106.7-12.4c48.2,60,24.5,76.7-2.7,104
		c-19,19,20.7,67.1,62.2,108.6c41.5,41.5,89.6,81.2,108.6,62.2c27.2-27.2,44-50.9,104-2.7C450.1,495.4,404.1,527.6,377.7,553.9z
		 M76.2,207.1l-20.6-32.2c0,0-0.3,0.3-0.8,0.7c-0.6,0.5-1.1,1.1-2.4,2.2c-2.2,2-6.1,5.1-10.5,9.5c-2.2,2.3-4.6,4.8-6.9,7.8
		c-2.3,2.9-4.5,6.3-6.3,10c-2,3.6-3.3,7.7-4.5,11.8c-0.8,4.2-1.6,8.3-1.5,12.4c-0.3,4.1,0.4,8,0.9,11.8c0.6,3.7,1.7,7.2,2.5,10.6
		c2.3,6.5,4.7,12.3,7.3,17c2.2,4.8,4.8,8.2,6.3,10.9c1.6,2.6,2.5,4,2.5,4s-0.4-1.7-1-4.6c-0.5-2.9-1.8-7.2-2.2-12.2
		c-0.8-4.9-1-10.7-1-16.8c0.4-3,0.5-6,1-9c0.7-2.9,1.2-5.9,2.4-8.4c0.9-2.7,2.5-5,3.7-7.2c1.7-2,3.1-3.9,4.9-5.4
		c1.7-1.6,3.6-2.9,5.4-4c1.8-1.1,3.8-2.1,5.6-2.9c3.8-1.7,7.2-2.9,10.1-4c1.5-0.6,2.7-1.1,3.5-1.4C75.7,207.3,76.2,207.1,76.2,207.1
		z M386.6,509.5l-33.3-18.7c0,0-0.5,1.6-1.5,4.3c-0.9,2.6-2,5.9-3.6,9.7c-3.2,7.3-8.8,16.1-19.1,21.1l-3.9,1.8l-4.2,1.3
		c-2.8,1.1-5.8,1.2-8.7,1.8c-2.9,0.5-5.8,0.4-8.6,0.6c-2.8,0.3-5.4-0.2-7.9-0.2c-5-0.1-9.2-1-12.2-1.4c-3-0.5-4.6-0.7-4.6-0.7
		s1.5,0.8,4.1,2.3c2.7,1.4,6.2,3.7,11.1,5.6c2.4,1,5.1,2.4,8,3.2c2.9,0.8,6,2.1,9.4,2.7c3.4,0.6,6.9,1.6,10.7,1.6l5.7,0.3l5.9-0.4
		c4-0.3,8-1.3,11.9-2.5c3.9-1.2,7.7-2.9,11.2-4.8c3.4-2,6.8-4.1,9.5-6.4c2.9-2.2,5.3-4.6,7.6-6.7c4.3-4.4,7.5-8.3,9.5-10.8
		C385.5,510.9,386.6,509.5,386.6,509.5z"/>
</g>
</svg>
