<?xml version="1.0" encoding="utf-8"?>
<!-- Generator: Adobe Illustrator 24.0.2, SVG Export Plug-In . SVG Version: 6.00 Build 0)  -->
<svg version="1.1" id="Capa_1" xmlns="http://www.w3.org/2000/svg" xmlns:xlink="http://www.w3.org/1999/xlink" x="0px" y="0px"
	 viewBox="0 0 512 512" style="enable-background:new 0 0 512 512;" xml:space="preserve">
<style type="text/css">
	.st0{fill:#FFFFFF;}
</style>
<g>
	<g>
		<path class="st0" d="M287,151c-24.8,0-45,20.2-45,45s20.2,45,45,45s45-20.2,45-45S311.8,151,287,151z M287,211
			c-8.3,0-15-6.7-15-15s6.7-15,15-15s15,6.7,15,15S295.3,211,287,211z"/>
	</g>
</g>
<g>
	<g>
		<path class="st0" d="M407,271c-24.8,0-45,20.2-45,45s20.2,45,45,45s45-20.2,45-45S431.8,271,407,271z M407,331
			c-8.3,0-15-6.7-15-15s6.7-15,15-15s15,6.7,15,15S415.3,331,407,331z"/>
	</g>
</g>
<g>
	<g>
		<path class="st0" d="M415.3,153.5c-6.9-4.6-16.2-2.7-20.8,4.2l-120,180c-4.6,6.9-2.7,16.2,4.2,20.8c6.9,4.6,16.2,2.7,20.8-4.2
			l120-180C424.1,167.4,422.2,158.1,415.3,153.5z"/>
	</g>
</g>
<g>
	<g>
		<path class="st0" d="M497,91H15c-8.3,0-15,6.7-15,15v90c0,8.3,6.7,15,15,15c24.8,0,45,20.2,45,45s-20.2,45-45,45
			c-8.3,0-15,6.7-15,15v90c0,8.3,6.7,15,15,15h482c8.3,0,15-6.7,15-15V106C512,97.7,505.3,91,497,91z M482,391H150v-15
			c0-8.3-6.7-15-15-15s-15,6.7-15,15v15H30v-61.5c34.2-7,60-37.3,60-73.5s-25.8-66.5-60-73.5V121h91.3v15c0,8.3,6.7,15,15,15
			s15-6.7,15-15v-15H482V391z"/>
	</g>
</g>
<g>
	<g>
		<path class="st0" d="M135,271c-8.3,0-15,6.7-15,15v30c0,8.3,6.7,15,15,15s15-6.7,15-15v-30C150,277.7,143.3,271,135,271z"/>
	</g>
</g>
<g>
	<g>
		<path class="st0" d="M135,181c-8.3,0-15,6.7-15,15v30c0,8.3,6.7,15,15,15s15-6.7,15-15v-30C150,187.7,143.3,181,135,181z"/>
	</g>
</g>
</svg>
