<?xml version="1.0" encoding="utf-8"?>
<!-- Generator: Adobe Illustrator 24.0.2, SVG Export Plug-In . SVG Version: 6.00 Build 0)  -->
<svg version="1.1" id="Capa_1" xmlns="http://www.w3.org/2000/svg" xmlns:xlink="http://www.w3.org/1999/xlink" x="0px" y="0px"
	 viewBox="0 0 512 512" style="enable-background:new 0 0 512 512;" xml:space="preserve">
<style type="text/css">
	.st0{fill:#FFFFFF;}
</style>
<g>
	<g>
		<path class="st0" d="M467,120h-61c9.4-12.5,15-28.1,15-45c0-41.4-33.6-75-75-75c-24.9,0-43.3,8.9-57.8,28.1
			c-12.2,16-21,38.4-32.2,66.7c-11.1-28.3-20-50.7-32.2-66.7C209.3,8.9,190.9,0,166,0c-41.4,0-75,33.6-75,75c0,16.9,5.6,32.5,15,45
			H45c-24.8,0-45,20.2-45,45v30c0,19.6,12.5,36.2,30,42.4V467c0,24.8,20.2,45,45,45h362c24.8,0,45-20.2,45-45V237.4
			c17.5-6.2,30-22.9,30-42.4v-30C512,140.2,491.8,120,467,120z M283.5,106.7C306.5,48.4,315.2,30,346,30c24.8,0,45,20.2,45,45
			s-20.2,45-45,45h-67.7C280.1,115.4,281.9,110.9,283.5,106.7z M166,30c30.8,0,39.5,18.4,62.5,76.7c1.7,4.2,3.4,8.6,5.2,13.3H166
			c-24.8,0-45-20.2-45-45S141.2,30,166,30z M196,482H75c-8.3,0-15-6.7-15-15V240h136V482z M196,210H45c-8.3,0-15-6.7-15-15v-30
			c0-8.3,6.7-15,15-15h151V210z M286,482h-60V150c3.1,0,42.8,0,60,0V482z M452,467c0,8.3-6.7,15-15,15H316V240h136V467z M482,195
			c0,8.3-6.7,15-15,15H316v-60h151c8.3,0,15,6.7,15,15V195z"/>
	</g>
</g>
</svg>
