<?xml version="1.0" encoding="utf-8"?>
<!-- Generator: Adobe Illustrator 16.0.0, SVG Export Plug-In . SVG Version: 6.00 Build 0)  -->
<!DOCTYPE svg PUBLIC "-//W3C//DTD SVG 1.1//EN" "http://www.w3.org/Graphics/SVG/1.1/DTD/svg11.dtd">
<svg version="1.1" id="Layer_1" xmlns="http://www.w3.org/2000/svg" xmlns:xlink="http://www.w3.org/1999/xlink" x="0px" y="0px"
	 width="1030px" height="147px" viewBox="0 0 1030 147" enable-background="new 0 0 1030 147" xml:space="preserve">
<g>
	<path fill="#FDFDFC" d="M196.043,120.318c-2.7-1.993-2.404-5.276-2.403-8.291c0.006-24.997,0.004-49.994,0.003-74.991
		c0-3.506-0.13-7.135,1.511-10.276c1.452-2.782,0.335-3.671-2.009-4.622c-10.91-4.426-21.804-8.894-32.654-13.464
		c-4.803-2.024-9.369-1.685-13.915,0.635c-6.437,3.283-12.351,10.03-19.125,9.515c-6.93-0.526-13.493-5.879-20.216-9.12
		c-0.15-0.072-0.296-0.153-0.438-0.241C99.913,5.179,93.594,5.988,86.9,10.531c-10.705,7.264-20.563,15.887-32.623,21.058
		c-1.055,0.452-1.592,1.001-1.094,2.259c1.722,4.34,0.848,8.894,0.867,13.343c0.098,22.648,0.045,45.297,0.045,68.271
		c-2.388-0.688-4.427-1.287-6.472-1.865c-13.151-3.714-22.199,0.148-28.578,12.238c-0.351,0.665-1.296,1.268-0.683,2.201
		c0.564,0.859,1.371,0.531,2.213,0.377c9.519-1.748,18.936-0.102,27.227,3.984c8.725,4.3,14.848,2.244,22.257-2.824
		c9.079-6.212,13.062-13.895,12.96-24.659c-0.238-25.161-0.076-50.327-0.076-75.49c0-1.735,0-3.47,0-5.747
		c7.583,3.605,14.338,7.139,21.353,10.046c5.211,2.16,7.166,5.443,7.114,11.085c-0.229,24.828-0.042,49.66-0.137,74.49
		c-0.025,6.464,2.034,11.66,7.417,15.473c2.176,1.541,3.922,1.766,6.233,0.077c4.425-3.233,9.009-6.275,13.699-9.111
		c3.023-1.828,4.267-3.176,0.65-5.769c-1.748-1.253-2.271-3.545-2.269-5.847c0.03-29.321,0.02-58.643,0.02-88.832
		c8.598,3.436,16.538,6.738,24.579,9.773c4.725,1.784,6.474,4.869,6.439,9.907c-0.171,25.163-0.008,50.328-0.128,75.491
		c-0.029,6.035,2.342,10.505,7.025,14.096c2.25,1.726,4.091,2.097,6.56,0.291c4.558-3.336,9.256-6.503,14.065-9.466
		C198.303,123.693,199.101,122.576,196.043,120.318z"/>
	<path fill="#FDFDFC" d="M650.112,30.858c2.267-1.977,4.033-2.426,6.975-1.125c8.34,3.687,16.989,6.601,25.878,8.743
		c16.401,3.953,27.926-0.271,36.963-13.854c-3.557-0.431-6.984-0.604-10.307-1.292c-12.919-2.672-25.087-7.559-36.784-13.498
		c-7.262-3.688-13.561-2.883-19.992,1.715c-13.592,9.718-26.132,20.698-37.839,32.526c-17.278,17.457-18.686,40.462-4.133,60.253
		c12.278,16.698,29.458,27.09,47.597,36.172c1.992,0.998,3.466,0.343,5.111-0.535c13.19-7.033,26.255-14.281,38.705-22.584
		c9.424-6.284,14.288-14.645,13.883-26.407c-0.318-9.226-1.462-18.63,1.527-28.154c-14.963,0.688-29.745-0.712-44.552-0.579
		c-10.659,0.096-18.334,4.945-22.532,16.144c13.167-3.474,25.653-1.086,38.077-1.451c3.002-0.089,3.575,1.116,3.5,3.798
		c-0.173,6.159-0.502,12.367,0.057,18.48c0.725,7.937-3.181,12.415-9.22,16.756c-6.855,4.928-12.326,5.16-19.406,0.129
		c-11.409-8.106-23.419-15.325-31.396-27.306c-8.275-12.429-7.213-31.6,2.578-42.877C639.497,40.504,644.699,35.575,650.112,30.858z
		"/>
	<path fill="#FDFDFC" d="M360.601,113.951c0.11-16.33,0.043-32.661,0.043-48.992c0-17.497-0.063-34.995,0.056-52.491
		c0.022-3.328-0.579-4.277-3.772-2.447c-4.462,2.559-9.019,4.974-13.651,7.21c-3.617,1.745-5.058,4.386-4.93,8.353
		c0.188,5.826-0.057,11.666,0.093,17.494c0.074,2.893-0.14,4.461-3.638,2.817c-4.923-2.313-9.649-1.533-14.109,1.574
		c-6.14,4.277-12.567,8.098-19.325,11.319c-4.483,2.139-7.031,5.497-7.042,10.521c-0.032,14.998-0.1,29.997,0.037,44.993
		c0.065,7.199,2.838,12.741,9.091,17.231c8.063,5.791,15.604,6.652,23.913,1.298c1.246-0.804,2.702-1.273,3.993-2.016
		c4.304-2.478,8.31-5.256,11.697,1.612c0.986,2,3.508,5.354,7.158,3.023c5.166-3.299,10.223-6.767,16.079-10.664
		C361.479,122.157,360.57,118.396,360.601,113.951z M338.395,113.961c-0.002,5.792-6.698,9.947-12.101,7.398
		c-5.888-2.777-9.654-6.322-9.29-14.063c0.735-15.607,0.219-31.274,0.219-47.638c6.76,2.765,12.684,5.303,18.703,7.591
		c2.447,0.93,2.5,2.623,2.494,4.716C338.375,85.964,338.4,99.962,338.395,113.961z"/>
	<path fill="#FDFDFC" d="M511.58,56.584c-8.588-3.524-17.061-7.328-25.636-10.883c-4.402-1.825-8.816-1.572-12.864,1.099
		c-6.8,4.485-13.786,8.626-21.137,12.155c-4.666,2.24-6.819,6.022-6.734,11.236c0.111,6.829,0.027,13.66,0.027,20.49
		s-0.009,13.66,0.002,20.491c0.013,7.107,2.91,12.535,9.399,15.758c5.645,2.804,11.357,5.471,17.001,8.276
		c4.773,2.374,9.288,1.929,13.677-0.937c6.679-4.36,13.344-8.742,20.058-13.048c4.582-2.938,6.775-6.957,6.714-12.484
		c-0.14-12.826-0.001-25.654-0.075-38.481c-0.019-3.207,0.129-6.442,1.405-9.308C514.552,58.403,513.944,57.554,511.58,56.584z
		 M489.995,114.364c-0.002,5.192-4.731,8.757-9.944,7.512c-9.135-2.182-11.891-5.73-11.89-15.319
		c0.003-14.999,0.007-29.998,0.016-44.998c0-0.329,0.076-0.659,0.221-1.843c6.181,2.488,12.027,4.729,17.774,7.2
		c3.17,1.363,3.873,4.194,3.855,7.45C489.954,87.699,490,101.032,489.995,114.364z"/>
	<path fill="#FDFDFC" d="M277.926,113.008c0.217-14.49,0.109-28.985,0.053-43.479c-0.011-2.862-0.074-5.824,1.232-8.313
		c1.622-3.091,0.081-3.975-2.316-5.051c-7.109-3.191-14.173-6.486-21.213-9.829c-5.071-2.407-9.969-2.206-14.702,0.745
		c-8.597,5.362-17.154,10.79-26.011,16.368c5.915,6.141,5.917,6.145,12.687,2.08c2.991-1.795,5.963-3.624,8.959-5.412
		c1.272-0.759,2.389-1.402,4.102-0.517c3.675,1.9,7.549,3.413,11.323,5.125c1.578,0.716,3.01,1.831,3.071,3.625
		c0.064,1.88-1.946,2.015-3.168,2.682c-10.346,5.639-20.723,11.223-31.092,16.818c-6.105,3.295-9.404,8.137-8.974,15.344
		c0.267,4.483,0.108,8.993,0.081,13.491c-0.015,2.576,0.744,4.896,2.041,7.079c7.053,11.88,18.184,15.229,30.46,9.158
		c1.488-0.736,3.058-1.353,4.433-2.263c4.335-2.868,8.159-5.046,11.468,1.654c1.003,2.032,3.511,5.512,7.158,3.224
		c5.301-3.324,10.408-6.957,15.999-10.729C278.66,121.875,277.854,117.82,277.926,113.008z M255.901,116.102
		c-0.015,3.223-7.683,7.56-11.582,6.677c-5.762-1.304-9.391-5.709-9.495-11.763c-0.091-5.313,0.021-10.63-0.028-15.945
		c-0.023-2.517,0.78-4.545,2.965-5.902c1.125-0.698,2.263-1.38,3.428-2.009c4.622-2.491,9.257-4.958,14.734-7.888
		C255.924,92.217,255.959,104.159,255.901,116.102z"/>
	<path fill="#FDFDFC" d="M796.395,123.15c-2.803-2.009-3.464-4.965-3.439-8.359c0.113-15.159,0.085-30.319,0.019-45.479
		c-0.013-2.872,0.018-5.825,1.29-8.308c1.494-2.915,0.072-3.718-2.135-4.72c-7.248-3.29-14.452-6.675-21.664-10.043
		c-4.887-2.282-9.658-2.125-14.246,0.73c-8.737,5.438-17.439,10.931-26.172,16.411c5.463,6.196,5.773,6.259,12.385,2.305
		c2.993-1.79,5.944-3.653,8.96-5.407c1.226-0.714,2.304-1.705,4.082-0.811c3.846,1.937,7.945,3.38,11.744,5.395
		c3.939,2.09,3.854,3.995,0.005,6.079c-9.777,5.293-19.481,10.733-29.396,15.758c-7.618,3.861-11.882,9.312-10.949,18.204
		c0.293,2.802,0.036,5.659,0.047,8.491c0.066,17.152,16.453,27.365,31.795,19.814c2.084-1.025,4.228-1.957,6.214-3.148
		c3.811-2.284,6.656-4.103,9.922,1.634c3.219,5.652,5.42,5.371,10.75,1.822c3.46-2.304,6.881-4.667,10.384-6.901
		C797.674,125.542,798.654,124.771,796.395,123.15z M769.75,119.183c-3.159,1.703-6.312,4.059-10.109,3.6
		c-5.576-0.674-9.678-5.619-9.805-11.444c-0.114-5.313,0.063-10.632-0.061-15.944c-0.074-3.19,1.223-5.383,3.971-6.86
		c4.809-2.586,9.639-5.138,14.388-7.83c2.188-1.24,2.863-0.79,2.821,1.687c-0.097,5.646-0.031,11.295-0.03,16.942
		c0,4.651,0.136,9.309-0.063,13.95C770.775,115.269,772.187,117.87,769.75,119.183z"/>
	<path fill="#FDFDFC" d="M427.533,46.71c-2.542,0.021-3.45-1.044-3.361-3.628c0.179-5.156,0.178-10.327,0.002-15.483
		c-0.092-2.701,0.908-3.167,3.232-2.45c4.591,1.416,9.191,2.813,13.822,4.092c11.175,3.086,17.626-0.066,22.664-11.105
		c-6.532-0.561-12.622-2.743-18.796-4.577c-24.13-7.166-16.381-8.375-37.961,6.749c-4.697,3.291-7.12,7.714-6.776,13.6
		c0.194,3.319,0.028,6.659,0.037,9.99c0.004,1.5,0.195,2.919-1.94,3.367c-5.133,1.077-7.653,4.808-9.288,10.079
		c1.527-0.137,2.667-0.281,3.811-0.333c7.415-0.337,7.416-0.33,7.416,6.975c0,18.484,0.059,36.969-0.032,55.453
		c-0.031,6.421,1.966,11.666,7.277,15.566c2.296,1.688,4.077,1.915,6.54,0.098c4.935-3.641,10.155-6.894,15.599-10.535
		c-4.881-3.022-5.689-7.404-5.626-12.495c0.197-15.817,0.072-31.639,0.072-47.459c0-7.177,0-7.177,7.358-7.596
		c7.541-0.429,11.824-3.658,13.422-10.322C439.143,46.694,433.337,46.661,427.533,46.71z"/>
	<path fill="#FDFDFC" d="M898.857,87.424c0-24.811-0.106-49.623,0.095-74.434c0.037-4.61-1.271-4.532-4.633-2.73
		c-4.671,2.504-9.464,4.792-14.28,7.01c-3.554,1.637-5.142,4.002-5.123,8.131c0.145,31.805,0.125,63.61,0.041,95.415
		c-0.017,6.06,2.617,10.425,7.293,13.949c2.132,1.607,3.871,1.79,6.15,0.156c4.992-3.578,10.173-6.894,15.535-10.489
		c-5.071-5.129-5.075-5.129-5.078-12.029C898.854,104.076,898.857,95.75,898.857,87.424z"/>
	<path fill="#FDFDFC" d="M1006.332,118.737c-2.763,2.054-6.019,3.51-9.186,4.94c-6.304,2.849-17.766-3.116-17.841-9.521
		c-0.21-17.935-0.073-35.872-0.073-54.889c15.187,7.832,29.838,12.774,41.768-4.467c-8.097-1.335-15.473-5.021-22.842-8.701
		c-4.908-2.451-9.621-2.159-14.154,0.81c-6.807,4.458-13.772,8.614-21.125,12.133c-4.037,1.932-6.463,5.183-6.469,9.839
		c-0.021,13.982-0.096,27.966,0.048,41.947c0.08,7.783,3.407,13.669,10.802,17.003c4.986,2.247,9.846,4.781,14.728,7.256
		c3.841,1.948,7.72,2.056,11.456,0.025c8.433-4.582,16.777-9.325,25.285-14.074C1015.044,115.375,1011.137,115.166,1006.332,118.737
		z"/>
	<path fill="#FDFDFC" d="M840.277,53.65c-0.381,0.318-0.818,0.568-1.227,0.855c-5.29,3.717-5.29,3.717-8.395-1.839
		c-3.72-6.655-5.504-7.105-11.715-2.961c-2.351,1.569-4.663,3.201-7.066,4.686c-3.106,1.919-6.387,3.46-2.942,8.019
		c1.347,1.783,0.965,4.475,0.961,6.824c-0.03,17.161,0.058,34.322-0.056,51.482c-0.039,5.828,2.303,10.168,6.797,13.702
		c2.412,1.896,4.355,2.192,6.978,0.272c4.82-3.532,9.892-6.722,15.651-10.584c-5.513-2.884-5.715-7.603-5.666-12.627
		c0.135-13.66,0.205-27.326-0.063-40.983c-0.068-3.509,1.576-4.976,4.127-6.512c2.627-1.582,4.645-0.771,6.822,0.817
		c3.011,2.196,5.685,4.732,7.224,8.113c0.911,2.001,1.578,2.763,3.521,1.215c4.424-3.522,8.891-6.991,13.368-10.444
		c1.68-1.295,1.727-2.569,0.401-4.187C858.603,46.82,852.71,43.276,840.277,53.65z"/>
	<path fill="#FDFDFC" d="M558.165,53.05c-1.008,0.858-2.256,1.439-3.242,2.318c-3.17,2.823-5.01,3.376-6.95-1.666
		c-2.956-7.683-5.742-8.18-12.341-3.775c-2.073,1.384-4.13,2.793-6.225,4.143c-3.246,2.093-7.264,3.711-3.319,8.724
		c1.333,1.692,0.839,4.174,0.838,6.338c-0.004,17.319,0.056,34.639-0.031,51.957c-0.031,6.076,2.752,10.398,7.493,13.833
		c1.982,1.436,3.588,1.6,5.71,0.091c5.125-3.646,10.434-7.031,15.831-10.629c-2.773-2.598-5.304-5.015-5.26-9.24
		c0.161-15.319,0.036-30.641,0.079-45.962c0.01-3.578,5.45-7.651,8.29-5.833c4.496,2.88,9.663,5.521,10.449,12.371
		c6.271-3.653,11.152-7.903,16.133-12.017c1.267-1.047,2.041-2.127,0.73-3.77C576.989,48.207,570.256,42.746,558.165,53.05z"/>
	<path fill="#FDFDFC" d="M940.071,110.953c0.108-20.49,0.045-40.98,0.045-61.471c0-1.378,0-2.757,0-4.622
		c-7.002,3.415-13.24,6.468-19.489,9.5c-2.796,1.357-4.334,3.438-4.329,6.667c0.032,19.99-0.031,39.98,0.049,59.971
		c0.024,6.096,2.755,10.823,7.971,14.115c1.51,0.953,2.814,1.611,4.529,0.439c5.445-3.722,10.939-7.372,17.032-11.465
		C940.134,121.039,940.044,116.122,940.071,110.953z"/>
	<path fill="#FDFDFC" d="M68.902,13.27c-4.025,0.297-6.951,0.611-9.868,0.035c-8.61-1.699-17.206-3.511-25.867-4.911
		C21.213,6.462,6.584,15.741,2.996,27.875c7.917-4.236,15.898-3.41,23.564-1.46C42.939,30.582,56.112,24.996,68.902,13.27z"/>
	<path fill="#FDFDFC" d="M919.206,45.304c6.187-3.182,12.437-6.239,18.682-9.305c1.249-0.612,2.281-1.181,2.249-2.861
		c-0.078-4.102-0.025-8.207-0.025-12.976c-7.288,3.559-13.979,6.765-20.606,10.098c-2.076,1.045-3.097,2.989-3.163,5.31
		c-0.077,2.662,0.046,5.33-0.054,7.99C916.194,46.073,917.033,46.422,919.206,45.304z"/>
</g>
</svg>
