<?xml version="1.0" encoding="utf-8"?>
<!-- Generator: Adobe Illustrator 24.0.2, SVG Export Plug-In . SVG Version: 6.00 Build 0)  -->
<svg version="1.1" id="Capa_1" xmlns="http://www.w3.org/2000/svg" xmlns:xlink="http://www.w3.org/1999/xlink" x="0px" y="0px"
	 viewBox="0 0 512 512" style="enable-background:new 0 0 512 512;" xml:space="preserve">
<g>
	<g>
		<g>
			<path d="M256,512c141.4,0,256-114.6,256-256S397.4,0,256,0S0,114.6,0,256S114.6,512,256,512z M256,32c123.7,0,224,100.3,224,224
				S379.7,480,256,480S32,379.7,32,256S132.3,32,256,32z"/>
			<path d="M219.4,395.2l128-128c6.2-6.2,6.2-16.3,0-22.6l-128-128l-22.6,22.7L313.4,256L196.8,372.6L219.4,395.2z"/>
		</g>
	</g>
</g>
</svg>
