<?xml version="1.0" encoding="utf-8"?>
<!-- Generator: Adobe Illustrator 24.0.2, SVG Export Plug-In . SVG Version: 6.00 Build 0)  -->
<svg version="1.1" id="Capa_1" xmlns="http://www.w3.org/2000/svg" xmlns:xlink="http://www.w3.org/1999/xlink" x="0px" y="0px"
	 viewBox="0 0 512 512" style="enable-background:new 0 0 512 512;" xml:space="preserve">
<style type="text/css">
	.st0{fill:#FFFFFF;}
</style>
<g>
	<path class="st0" d="M346,226h-30c-8.3,0-15,6.7-15,15v90c0,8.3,6.7,15,15,15s15-6.7,15-15v-15h15c24.8,0,45-20.2,45-45
		S370.8,226,346,226z M346,286h-15v-30h15c8.3,0,15,6.7,15,15S354.3,286,346,286z"/>
	<path class="st0" d="M497,76H15C6.7,76,0,82.7,0,91v330c0,8.3,6.7,15,15,15h482c8.3,0,15-6.7,15-15V91C512,82.7,505.3,76,497,76z
		 M482,106v30H30v-30H482z M30,406V166h452v240H30z"/>
	<circle class="st0" cx="436" cy="301" r="15"/>
	<circle class="st0" cx="76" cy="301" r="15"/>
	<path class="st0" d="M200.7,226.8c-7.9-2.6-16.4,1.6-19,9.5L166,283.6l-15.8-47.3c-2.6-7.9-11.1-12.1-19-9.5
		c-7.9,2.6-12.1,11.1-9.5,19l30,90c2.1,6.1,7.8,10.3,14.2,10.3h0c0,0,0,0,0,0c6.5,0,12.2-4.2,14.2-10.3l30-90
		C212.9,237.9,208.6,229.4,200.7,226.8L200.7,226.8z"/>
	<path class="st0" d="M256,226c-8.3,0-15,6.7-15,15v90c0,8.3,6.7,15,15,15s15-6.7,15-15v-90C271,232.7,264.3,226,256,226z"/>
</g>
</svg>
